{
.appVersion = "3343";
.formatVersion = 3;
axes = (
{
name = Wind;
tag = WIND;
}
);
date = "2023-04-21 19:27:48 +0000";
familyName = "West Winds";
fontMaster = (
{
axesValues = (
0
);
customParameters = (
{
name = typoAscender;
value = 800;
},
{
name = typoDescender;
value = -200;
},
{
name = typoLineGap;
value = 200;
},
{
name = winAscent;
value = 1000;
},
{
name = winDescent;
value = 200;
},
{
name = hheaAscender;
value = 1000;
},
{
name = hheaDescender;
value = -200;
},
{
name = strikeoutPosition;
value = 250;
},
{
name = strikeoutSize;
value = 50;
}
);
id = m01;
metricValues = (
{
pos = 800;
},
{
pos = 700;
},
{
pos = 500;
},
{
},
{
pos = -200;
},
{
}
);
name = Regular;
},
{
axesValues = (
1000
);
customParameters = (
{
name = typoAscender;
value = 800;
},
{
name = typoDescender;
value = -200;
},
{
name = typoLineGap;
value = 200;
},
{
name = winAscent;
value = 1000;
},
{
name = winDescent;
value = 200;
},
{
name = hheaAscender;
value = 1000;
},
{
name = hheaDescender;
value = -200;
},
{
name = strikeoutPosition;
value = 250;
},
{
name = strikeoutSize;
value = 50;
}
);
id = "FEBA88C5-D8E7-4497-AAB9-B5B339CFC9B8";
metricValues = (
{
pos = 800;
},
{
pos = 700;
},
{
pos = 500;
},
{
},
{
pos = -200;
},
{
}
);
name = "WIND=1000";
}
);
glyphs = (
{
glyphname = A;
layers = (
{
layerId = m01;
shapes = (
{
closed = 1;
nodes = (
(158,266,l),
(510,266,l),
(452,396,o),
(394,525,o),
(334,659,q)
);
},
{
closed = 1;
nodes = (
(0,7,l),
(11,7,o),
(46,42,o),
(61,76,qs),
(351,716,l),
(362,716,l),
(515,379,o),
(668,41,qs),
(683,7,o),
(708,7,q),
(708,1,l),
(604,1,l),
(604,7,l),
(616,7,o),
(616,22,qs),
(616,33,o),
(609,47,qs),
(578,117,o),
(547,187,o),
(515,259,q),
(155,259,l),
(81,96,ls),
(66,62,o),
(66,38,qs),
(66,23,o),
(78,7,o),
(86,7,q),
(86,1,l),
(0,2,l)
);
},
{
closed = 1;
nodes = (
(514,287,l),
(465,272,o),
(388,333,o),
(339,426,o),
(313,491,qs),
(295,535,o),
(280,559,o),
(274,544,q),
(278,544,l),
(281,554,o),
(294,531,o),
(306,498,qs),
(331,432,o),
(381,335,o),
(463,271,o),
(516,287,q)
);
},
{
closed = 1;
nodes = (
(201,369,l),
(190,341,o),
(262,85,o),
(341,109,o),
(359,387,q),
(355,387,l),
(337,326,o),
(275,331,o),
(217,397,o),
(218,407,q),
(214,407,l),
(213,397,o),
(269,332,o),
(333,319,o),
(353,369,q),
(335,112,o),
(261,97,o),
(194,342,o),
(205,369,q)
);
},
{
closed = 1;
nodes = (
(602,126,l),
(503,91,o),
(354,249,o),
(270,463,o),
(264,507,q),
(260,507,l),
(263,468,o),
(349,248,o),
(502,89,o),
(604,126,q)
);
}
);
width = 708;
},
{
layerId = "FEBA88C5-D8E7-4497-AAB9-B5B339CFC9B8";
shapes = (
{
closed = 1;
nodes = (
(158,266,l),
(512,266,l),
(513,383,o),
(418,579,o),
(334,659,q)
);
},
{
closed = 1;
nodes = (
(0,7,l),
(11,7,o),
(46,42,o),
(61,76,qs),
(351,716,l),
(362,716,l),
(491,532,o),
(668,41,q),
(683,7,o),
(708,7,q),
(708,1,l),
(604,1,l),
(604,7,l),
(616,7,o),
(616,22,qs),
(616,35,o),
(616,47,q),
(607,133,o),
(551,240,o),
(515,259,q),
(155,259,l),
(81,96,ls),
(66,62,o),
(66,38,qs),
(66,23,o),
(78,7,o),
(86,7,q),
(86,1,l),
(0,2,l)
);
},
{
closed = 1;
nodes = (
(513,287,l),
(476,248,o),
(407,294,o),
(356,391,o),
(323,469,qs),
(302,521,o),
(280,560,o),
(274,544,q),
(278,544,l),
(282,553,o),
(296,526,o),
(315,480,qs),
(345,403,o),
(401,295,o),
(476,244,o),
(517,287,q)
);
},
{
closed = 1;
nodes = (
(201,369,l),
(186,349,o),
(310,89,o),
(393,108,o),
(359,386,q),
(355,386,l),
(345,320,o),
(282,325,o),
(217,397,o),
(218,407,q),
(214,407,l),
(213,397,o),
(278,326,o),
(343,313,o),
(356,370,q),
(387,112,o),
(307,100,o),
(190,349,o),
(205,369,q)
);
},
{
closed = 1;
nodes = (
(601,126,l),
(567,-17,o),
(418,142,o),
(269,472,o),
(264,507,q),
(260,507,l),
(263,474,o),
(416,137,o),
(570,-23,o),
(605,126,q)
);
}
);
width = 708;
}
);
note = A;
unicode = (65,97);
},
{
glyphname = B;
layers = (
{
layerId = m01;
shapes = (
{
closed = 1;
nodes = (
(492,278,o),
(340,387,o),
(152,387,qs),
(119,387,l),
(119,222,o),
(119,56,qs),
(119,-2,o),
(239,-2,qs),
(371,-2,o),
(492,109,o),
(492,196,qs)
);
},
{
closed = 1;
nodes = (
(152,395,ls),
(290,395,o),
(449,469,o),
(449,556,qs),
(449,637,o),
(300,707,o),
(184,707,qs),
(119,707,l),
(119,551,o),
(119,395,q)
);
},
{
closed = 1;
nodes = (
(30,0,l),
(30,7,l),
(47,7,o),
(71,24,o),
(71,56,qs),
(71,355,o),
(71,653,qs),
(71,689,o),
(47,708,o),
(30,708,q),
(30,715,l),
(184,715,ls),
(321,715,o),
(488,651,o),
(488,557,qs),
(488,477,o),
(366,402,o),
(268,389,q),
(417,380,o),
(542,277,o),
(542,196,qs),
(542,137,o),
(479,43,o),
(351,-11,o),
(258,-11,qs),
(236,-11,o),
(191,-8,o),
(167,-6,qs),
(99,0,o),
(66,0,qs)
);
},
{
closed = 1;
nodes = (
(71,149,l),
(112,136,o),
(185,260,o),
(243,524,o),
(260,713,q),
(256,713,l),
(239,525,o),
(181,262,o),
(110,137,o),
(73,149,q)
);
},
{
closed = 1;
nodes = (
(71,114,l),
(130,100,o),
(204,157,o),
(241,291,o),
(246,399,q),
(242,399,l),
(236,291,o),
(199,158,o),
(129,101,o),
(73,114,q)
);
}
);
width = 572;
},
{
layerId = "FEBA88C5-D8E7-4497-AAB9-B5B339CFC9B8";
shapes = (
{
closed = 1;
nodes = (
(499,277,o),
(340,387,o),
(152,387,qs),
(119,387,l),
(145,218,o),
(119,56,q),
(119,-2,o),
(239,-2,qs),
(371,-2,o),
(499,110,o),
(499,196,qs)
);
},
{
closed = 1;
nodes = (
(152,395,ls),
(291,395,o),
(453,469,o),
(453,556,qs),
(453,637,o),
(301,707,o),
(184,707,qs),
(119,707,l),
(155,550,o),
(119,395,q)
);
},
{
closed = 1;
nodes = (
(30,0,l),
(30,7,l),
(47,7,o),
(71,24,o),
(71,56,q),
(105,374,o),
(71,653,q),
(71,689,o),
(47,708,o),
(30,708,q),
(30,715,l),
(184,715,ls),
(321,715,o),
(488,651,o),
(488,557,qs),
(488,477,o),
(366,402,o),
(268,389,q),
(417,380,o),
(542,277,o),
(542,196,qs),
(542,137,o),
(479,43,o),
(351,-11,o),
(258,-11,qs),
(236,-11,o),
(191,-8,o),
(167,-6,qs),
(99,0,o),
(66,0,qs)
);
},
{
closed = 1;
nodes = (
(80,149,l),
(122,135,o),
(248,317,o),
(304,589,o),
(260,713,q),
(256,713,l),
(300,590,o),
(244,319,o),
(121,137,o),
(82,149,q)
);
},
{
closed = 1;
nodes = (
(76,114,l),
(171,83,o),
(250,138,o),
(246,278,o),
(217,396,q),
(213,396,l),
(241,278,o),
(245,140,o),
(170,85,o),
(78,114,q)
);
}
);
width = 572;
}
);
note = B;
unicode = (66,98);
},
{
glyphname = C;
layers = (
{
layerId = m01;
shapes = (
{
closed = 1;
nodes = (
(30,462,o),
(94,621,o),
(238,716,o),
(353,716,qs),
(440,716,o),
(546,665,o),
(589,594,o),
(589,561,qs),
(589,528,o),
(568,496,o),
(552,496,qs),
(533,496,l),
(552,517,o),
(552,561,qs),
(552,593,o),
(513,660,o),
(423,708,o),
(351,708,qs),
(217,708,o),
(77,536,o),
(77,387,qs),
(77,260,o),
(159,91,o),
(291,11,o),
(368,11,qs),
(432,11,o),
(528,66,o),
(580,162,o),
(580,222,q),
(589,222,l),
(589,159,o),
(538,56,o),
(430,-7,o),
(351,-7,qs),
(245,-7,o),
(101,89,o),
(30,255,o),
(30,359,qs)
);
},
{
closed = 1;
nodes = (
(552,496,l),
(544,293,o),
(356,150,o),
(128,213,o),
(78,291,q),
(74,291,l),
(124,213,o),
(357,149,o),
(548,292,o),
(556,496,q)
);
},
{
closed = 1;
nodes = (
(408,707,l),
(399,496,o),
(301,173,o),
(177,52,o),
(133,121,q),
(129,121,l),
(175,49,o),
(304,169,o),
(404,496,o),
(412,707,q)
);
}
);
width = 619;
},
{
layerId = "FEBA88C5-D8E7-4497-AAB9-B5B339CFC9B8";
shapes = (
{
closed = 1;
nodes = (
(30,459,o),
(105,621,o),
(260,716,o),
(376,716,qs),
(463,716,o),
(569,665,o),
(612,594,o),
(612,561,qs),
(612,530,o),
(571,496,o),
(552,496,qs),
(533,496,l),
(552,517,o),
(552,561,qs),
(552,593,o),
(513,660,o),
(423,708,o),
(351,708,qs),
(220,708,o),
(106,542,o),
(106,387,qs),
(106,259,o),
(174,90,o),
(292,11,o),
(368,11,qs),
(432,11,o),
(528,66,o),
(580,162,o),
(580,222,q),
(589,222,l),
(597,161,o),
(545,56,o),
(431,-7,o),
(351,-7,qs),
(245,-7,o),
(101,89,o),
(30,255,o),
(30,359,qs)
);
},
{
closed = 1;
nodes = (
(552,496,l),
(587,279,o),
(418,144,o),
(158,218,o),
(78,291,q),
(74,291,l),
(154,218,o),
(419,142,o),
(592,277,o),
(556,496,q)
);
},
{
closed = 1;
nodes = (
(408,707,l),
(437,456,o),
(387,149,o),
(241,58,o),
(132,121,q),
(130,121,l),
(241,56,o),
(389,148,o),
(441,456,o),
(412,707,q)
);
}
);
width = 642;
}
);
note = C;
unicode = (67,99);
},
{
glyphname = D;
layers = (
{
layerId = m01;
shapes = (
{
closed = 1;
nodes = (
(533,500,o),
(459,644,o),
(298,707,o),
(160,707,qs),
(119,707,l),
(119,381,o),
(119,54,qs),
(119,23,o),
(178,-3,o),
(239,-3,qs),
(378,-3,o),
(533,179,o),
(533,374,qs)
);
},
{
closed = 1;
nodes = (
(30,0,l),
(30,6,l),
(47,6,o),
(69,23,o),
(69,54,qs),
(69,71,ls),
(69,217,o),
(69,363,o),
(69,509,o),
(69,655,qs),
(69,690,o),
(47,709,o),
(30,709,q),
(30,715,l),
(160,715,ls),
(310,715,o),
(491,656,o),
(582,508,o),
(582,374,qs),
(582,173,o),
(409,-12,o),
(260,-12,qs),
(231,-12,o),
(167,-6,qs),
(97,0,o),
(64,0,qs)
);
},
{
closed = 1;
nodes = (
(531,268,l),
(449,96,o),
(236,169,o),
(78,471,o),
(83,585,q),
(79,585,l),
(74,471,o),
(235,165,o),
(451,93,o),
(535,268,q)
);
},
{
closed = 1;
nodes = (
(553,327,l),
(470,154,o),
(254,219,o),
(93,514,o),
(98,628,q),
(94,628,l),
(89,514,o),
(253,217,o),
(473,151,o),
(557,327,q)
);
}
);
width = 612;
},
{
layerId = "FEBA88C5-D8E7-4497-AAB9-B5B339CFC9B8";
shapes = (
{
closed = 1;
nodes = (
(543,499,o),
(465,644,o),
(299,707,o),
(160,707,qs),
(119,707,l),
(157,347,o),
(119,54,q),
(119,23,o),
(178,-3,o),
(239,-3,qs),
(379,-3,o),
(543,181,o),
(543,374,qs)
);
},
{
closed = 1;
nodes = (
(30,0,l),
(30,6,l),
(47,6,o),
(69,23,o),
(69,54,q),
(71,71,ls),
(84,204,o),
(95,375,o),
(88,565,o),
(69,655,qs),
(62,689,o),
(44,709,o),
(30,709,q),
(30,715,l),
(160,715,ls),
(310,715,o),
(497,656,o),
(592,507,o),
(592,374,qs),
(592,174,o),
(410,-12,o),
(260,-12,qs),
(231,-12,o),
(167,-6,qs),
(97,0,o),
(64,0,qs)
);
},
{
closed = 1;
nodes = (
(541,422,l),
(545,239,o),
(330,171,o),
(104,397,o),
(96,585,q),
(92,585,l),
(100,397,o),
(330,169,o),
(550,237,o),
(545,422,q)
);
},
{
closed = 1;
nodes = (
(553,327,l),
(550,140,o),
(345,195,o),
(125,497,o),
(121,610,q),
(117,610,l),
(120,497,o),
(345,190,o),
(554,135,o),
(557,327,q)
);
}
);
width = 612;
}
);
note = D;
unicode = (68,100);
},
{
glyphname = E;
layers = (
{
layerId = m01;
shapes = (
{
closed = 1;
nodes = (
(30,0,l),
(30,9,l),
(43,9,o),
(57,14,o),
(67,38,o),
(67,64,qs),
(67,353,o),
(67,642,qs),
(67,668,o),
(57,692,o),
(43,697,o),
(30,697,q),
(30,706,l),
(507,706,l),
(507,647,o),
(507,587,qs),
(507,586,ls),
(497,630,o),
(445,676,o),
(318,697,o),
(195,697,qs),
(122,697,l),
(122,528,o),
(122,358,q),
(258,358,o),
(379,366,o),
(419,388,o),
(424,413,q),
(434,413,l),
(434,353,o),
(434,293,q),
(424,293,l),
(419,318,o),
(379,340,o),
(258,348,o),
(122,348,q),
(122,179,o),
(122,9,q),
(195,9,ls),
(319,9,o),
(445,30,o),
(497,75,o),
(507,119,qs),
(507,120,ls),
(507,60,o),
(507,0,q)
);
},
{
closed = 1;
nodes = (
(402,344,l),
(383,113,o),
(322,124,o),
(274,480,o),
(274,697,q),
(269,697,l),
(269,481,o),
(322,116,o),
(387,103,o),
(406,344,q)
);
},
{
closed = 1;
nodes = (
(308,700,l),
(308,557,o),
(244,365,o),
(167,463,o),
(144,697,q),
(140,697,l),
(163,458,o),
(244,360,o),
(313,557,o),
(313,700,q)
);
}
);
width = 537;
},
{
layerId = "FEBA88C5-D8E7-4497-AAB9-B5B339CFC9B8";
shapes = (
{
closed = 1;
nodes = (
(30,0,l),
(30,9,l),
(43,9,o),
(57,14,o),
(67,38,o),
(67,64,q),
(110,369,o),
(67,642,q),
(67,668,o),
(57,692,o),
(43,697,o),
(30,697,q),
(30,706,l),
(507,706,l),
(528,657,o),
(507,587,q),
(507,586,ls),
(497,630,o),
(445,676,o),
(318,697,o),
(195,697,qs),
(122,697,l),
(160,546,o),
(122,358,q),
(258,358,o),
(379,366,o),
(419,388,o),
(424,413,q),
(434,413,l),
(453,354,o),
(434,293,q),
(424,293,l),
(419,318,o),
(379,340,o),
(258,348,o),
(122,348,q),
(150,183,o),
(122,9,q),
(195,9,ls),
(319,9,o),
(445,30,o),
(497,75,o),
(507,119,qs),
(507,120,ls),
(524,42,o),
(507,0,q)
);
},
{
closed = 1;
nodes = (
(402,344,l),
(436,112,o),
(352,96,o),
(258,465,o),
(273,697,q),
(269,697,l),
(254,465,o),
(354,88,o),
(442,104,o),
(406,344,q)
);
},
{
closed = 1;
nodes = (
(308,700,l),
(333,556,o),
(306,380,o),
(213,478,o),
(144,697,q),
(140,697,l),
(210,473,o),
(308,376,o),
(337,556,o),
(312,700,q)
);
}
);
width = 537;
}
);
note = E;
unicode = (69,101);
},
{
glyphname = F;
layers = (
{
layerId = m01;
shapes = (
{
closed = 1;
nodes = (
(30,0,ls),
(42,0,o),
(58,6,o),
(69,30,o),
(69,56,qs),
(69,353,o),
(69,650,qs),
(69,687,o),
(49,706,o),
(30,706,q),
(30,715,l),
(519,715,l),
(519,678,o),
(519,640,o),
(519,602,q),
(519,606,ls),
(519,637,o),
(463,681,o),
(321,706,o),
(199,706,qs),
(125,706,l),
(125,532,o),
(125,358,q),
(265,358,o),
(388,366,o),
(430,389,o),
(435,414,q),
(445,414,l),
(445,353,o),
(445,292,q),
(435,292,l),
(430,317,o),
(388,340,o),
(265,348,o),
(125,348,q),
(125,216,o),
(125,83,qs),
(125,56,ls),
(125,30,o),
(135,6,o),
(149,0,o),
(162,0,qs),
(170,0,l),
(23,0,l)
);
},
{
closed = 1;
nodes = (
(174,706,l),
(174,395,o),
(160,81,o),
(137,96,o),
(125,253,q),
(121,253,l),
(134,83,o),
(161,69,o),
(179,397,o),
(179,706,q)
);
}
);
width = 549;
},
{
layerId = "FEBA88C5-D8E7-4497-AAB9-B5B339CFC9B8";
shapes = (
{
closed = 1;
nodes = (
(30,0,ls),
(41,0,o),
(54,5,o),
(65,29,o),
(69,56,qs),
(110,352,o),
(69,650,q),
(69,687,o),
(49,706,o),
(30,706,q),
(30,715,l),
(519,715,l),
(528,699,o),
(526,644,o),
(519,602,q),
(519,606,ls),
(519,642,o),
(464,685,o),
(325,706,o),
(199,706,qs),
(125,706,l),
(163,524,o),
(125,358,q),
(282,358,o),
(398,363,o),
(441,385,o),
(435,414,q),
(445,414,l),
(467,349,o),
(445,292,q),
(435,292,l),
(440,316,o),
(397,339,o),
(266,348,o),
(125,348,q),
(151,250,o),
(127,72,qs),
(125,56,ls),
(121,36,o),
(131,11,o),
(151,0,o),
(162,0,qs),
(170,0,l),
(23,0,l)
);
},
{
closed = 1;
nodes = (
(188,706,l),
(252,329,o),
(234,58,o),
(147,157,o),
(139,253,q),
(135,253,l),
(142,158,o),
(235,52,o),
(258,323,o),
(192,706,q)
);
}
);
width = 549;
}
);
note = F;
unicode = (70,102);
},
{
glyphname = G;
layers = (
{
layerId = m01;
shapes = (
{
closed = 1;
nodes = (
(30,519,o),
(182,715,o),
(347,715,qs),
(435,715,o),
(540,664,o),
(583,594,o),
(583,561,qs),
(583,529,o),
(562,498,o),
(546,498,qs),
(528,498,l),
(529,499,ls),
(536,507,o),
(546,537,o),
(546,561,qs),
(546,596,o),
(508,662,o),
(419,706,o),
(347,706,qs),
(215,706,o),
(85,545,o),
(85,398,qs),
(85,197,o),
(246,9,o),
(383,9,qs),
(482,9,o),
(537,35,q),
(537,101,o),
(537,168,o),
(537,236,qs),
(537,270,o),
(521,299,o),
(501,299,q),
(501,308,l),
(521,308,o),
(569,330,o),
(583,344,q),
(583,172,o),
(583,0,q),
(571,12,o),
(553,18,o),
(537,18,qs),
(517,18,o),
(484,11,qs),
(427,0,o),
(375,0,qs),
(258,0,o),
(103,99,o),
(30,263,o),
(30,362,qs)
);
},
{
closed = 1;
nodes = (
(567,223,l),
(459,258,o),
(210,355,o),
(65,416,q),
(281,540,o),
(436,708,q),
(341,641,o),
(162,537,o),
(73,497,q),
(75,497,l),
(159,533,o),
(327,630,o),
(416,691,q),
(265,535,o),
(63,416,q),
(348,294,o),
(565,223,q)
);
}
);
width = 613;
},
{
layerId = "FEBA88C5-D8E7-4497-AAB9-B5B339CFC9B8";
shapes = (
{
closed = 1;
nodes = (
(30,518,o),
(186,715,o),
(352,715,qs),
(440,715,o),
(548,664,o),
(594,593,o),
(594,561,qs),
(594,530,o),
(563,498,o),
(546,498,qs),
(528,498,l),
(529,499,ls),
(540,510,o),
(556,538,o),
(556,561,qs),
(556,596,o),
(518,662,o),
(429,706,o),
(357,706,qs),
(225,706,o),
(98,546,o),
(98,398,qs),
(98,196,o),
(248,9,o),
(383,9,qs),
(482,9,o),
(537,35,q),
(544,78,o),
(546,187,o),
(543,236,qs),
(539,268,o),
(520,299,o),
(501,299,q),
(501,308,l),
(521,308,o),
(569,330,o),
(583,344,q),
(601,168,o),
(583,0,q),
(571,12,o),
(553,18,o),
(537,18,qs),
(517,18,o),
(484,11,qs),
(427,0,o),
(375,0,qs),
(258,0,o),
(103,99,o),
(30,263,o),
(30,362,qs)
);
},
{
closed = 1;
nodes = (
(566,223,l),
(477,231,o),
(226,331,o),
(66,416,q),
(379,501,o),
(435,712,q),
(334,626,o),
(185,520,o),
(93,484,q),
(95,484,l),
(186,519,o),
(337,624,o),
(427,702,q),
(366,498,o),
(62,416,q),
(398,239,o),
(566,223,q)
);
}
);
width = 624;
}
);
note = G;
unicode = (71,103);
},
{
glyphname = H;
layers = (
{
layerId = m01;
shapes = (
{
closed = 1;
nodes = (
(30,0,ls),
(43,0,o),
(58,6,o),
(68,30,o),
(68,57,qs),
(68,236,o),
(68,414,o),
(68,598,qs),
(68,659,ls),
(68,691,o),
(49,707,o),
(30,707,q),
(30,716,l),
(152,716,l),
(152,707,l),
(134,707,o),
(115,691,o),
(115,659,qs),
(115,509,o),
(115,358,q),
(520,358,l),
(520,509,o),
(520,659,qs),
(520,690,o),
(504,707,o),
(492,707,q),
(492,716,l),
(605,716,l),
(605,707,l),
(586,707,o),
(567,691,o),
(567,659,qs),
(567,358,o),
(567,57,qs),
(567,30,o),
(577,6,o),
(592,0,o),
(605,0,qs),
(606,0,l),
(492,0,l),
(491,0,ls),
(503,0,o),
(520,20,o),
(520,57,qs),
(520,203,o),
(520,349,q),
(115,349,l),
(115,203,o),
(115,57,qs),
(115,30,o),
(125,6,o),
(140,0,o),
(152,0,qs),
(153,0,l),
(29,0,l)
);
},
{
closed = 1;
nodes = (
(553,190,l),
(462,170,o),
(323,161,o),
(180,187,o),
(97,224,q),
(95,224,l),
(178,186,o),
(323,160,o),
(463,170,o),
(555,190,q)
);
},
{
closed = 1;
nodes = (
(533,650,l),
(483,585,o),
(314,536,o),
(147,554,o),
(100,583,q),
(98,583,l),
(144,554,o),
(315,535,o),
(487,584,o),
(537,650,q)
);
},
{
closed = 1;
nodes = (
(533,495,l),
(508,463,o),
(337,472,o),
(145,526,o),
(100,554,q),
(98,554,l),
(142,526,o),
(337,471,o),
(511,462,o),
(537,495,q)
);
}
);
width = 635;
},
{
layerId = "FEBA88C5-D8E7-4497-AAB9-B5B339CFC9B8";
shapes = (
{
closed = 1;
nodes = (
(30,0,ls),
(43,0,o),
(58,6,o),
(68,30,o),
(68,57,q),
(78,179,o),
(77,425,o),
(70,598,qs),
(68,659,ls),
(68,691,o),
(49,707,o),
(30,707,q),
(30,716,l),
(152,716,l),
(152,707,l),
(137,707,o),
(114,681,o),
(115,659,q),
(132,500,o),
(115,358,q),
(520,358,l),
(549,543,o),
(520,659,q),
(512,683,o),
(499,707,o),
(492,707,q),
(492,716,l),
(605,716,l),
(605,707,l),
(586,707,o),
(567,691,o),
(567,659,q),
(586,346,o),
(567,57,q),
(567,30,o),
(577,6,o),
(592,0,o),
(605,0,qs),
(606,0,l),
(492,0,l),
(491,0,ls),
(500,0,o),
(513,19,o),
(520,57,qs),
(543,198,o),
(520,349,q),
(115,349,l),
(135,201,o),
(115,57,qs),
(112,31,o),
(123,6,o),
(139,0,o),
(152,0,qs),
(153,0,l),
(29,0,l)
);
},
{
closed = 1;
nodes = (
(1105,380,l),
(976,330,o),
(687,310,o),
(362,373,o),
(194,448,q),
(190,448,l),
(358,372,o),
(687,308,o),
(980,329,o),
(1111,380,q)
);
},
{
closed = 1;
nodes = (
(513,1110,l),
(518,996,o),
(319,907,o),
(114,921,o),
(103,942,q),
(101,942,l),
(111,922,o),
(321,906,o),
(525,994,o),
(519,1110,q)
);
},
{
closed = 1;
nodes = (
(533,340,ls),
(546,341,o),
(372,408,o),
(142,499,o),
(100,525,q),
(98,525,l),
(139,499,o),
(371,407,o),
(549,340,o),
(537,340,qs)
);
}
);
width = 635;
}
);
note = H;
unicode = (72,104);
},
{
glyphname = I;
layers = (
{
layerId = m01;
shapes = (
{
closed = 1;
nodes = (
(30,0,ls),
(43,0,o),
(58,6,o),
(68,30,o),
(68,57,qs),
(68,358,o),
(68,659,qs),
(68,691,o),
(49,707,o),
(30,707,q),
(30,716,l),
(153,716,l),
(153,707,l),
(134,707,o),
(115,691,o),
(115,659,qs),
(115,460,o),
(115,262,o),
(115,57,qs),
(115,30,o),
(125,6,o),
(140,0,o),
(153,0,qs),
(154,0,l),
(29,0,l)
);
},
{
closed = 1;
nodes = (
(104,716,l),
(105,635,o),
(104,435,o),
(102,347,qs),
(100,217,o),
(92,66,o),
(81,101,o),
(74,248,q),
(70,248,l),
(78,71,o),
(92,29,o),
(102,208,o),
(105,353,qs),
(107,454,o),
(109,642,o),
(108,716,q)
);
}
);
width = 183;
},
{
layerId = "FEBA88C5-D8E7-4497-AAB9-B5B339CFC9B8";
shapes = (
{
closed = 1;
nodes = (
(30,0,ls),
(43,0,o),
(58,6,o),
(68,30,o),
(68,57,qs),
(84,371,o),
(68,659,q),
(68,691,o),
(49,707,o),
(30,707,q),
(30,716,l),
(153,716,l),
(153,707,l),
(134,707,o),
(115,691,o),
(115,659,qs),
(122,433,o),
(124,164,o),
(115,57,q),
(115,30,o),
(125,6,o),
(140,0,o),
(153,0,qs),
(154,0,l),
(29,0,l)
);
},
{
closed = 1;
nodes = (
(104,716,l),
(105,657,o),
(126,485,o),
(145,358,qs),
(168,205,o),
(180,71,o),
(141,98,o),
(82,244,q),
(78,244,l),
(143,83,o),
(186,53,o),
(173,199,o),
(149,364,qs),
(129,499,o),
(109,660,o),
(108,716,q)
);
}
);
width = 183;
}
);
note = I;
unicode = (73,105);
},
{
glyphname = J;
layers = (
{
layerId = m01;
shapes = (
{
closed = 1;
nodes = (
(30,196,o),
(58,220,o),
(76,220,qs),
(85,220,l),
(83,208,ls),
(76,182,o),
(76,156,qs),
(76,125,o),
(113,57,o),
(195,9,o),
(259,9,qs),
(350,9,o),
(452,91,o),
(489,224,o),
(489,312,qs),
(479,660,ls),
(479,691,o),
(461,706,o),
(443,706,q),
(443,715,l),
(553,715,l),
(553,706,l),
(542,706,o),
(525,690,o),
(525,660,qs),
(535,321,ls),
(535,234,o),
(493,93,o),
(371,0,o),
(259,0,qs),
(177,0,o),
(75,49,o),
(30,124,o),
(30,165,qs)
);
},
{
closed = 1;
nodes = (
(85,77,l),
(94,48,o),
(296,180,o),
(478,427,o),
(491,575,q),
(487,575,l),
(473,427,o),
(295,183,o),
(97,50,o),
(89,77,q)
);
},
{
closed = 1;
nodes = (
(75,138,l),
(84,108,o),
(306,174,o),
(504,360,o),
(517,508,q),
(513,508,l),
(500,360,o),
(306,176,o),
(88,110,o),
(79,138,q)
);
}
);
width = 583;
},
{
layerId = "FEBA88C5-D8E7-4497-AAB9-B5B339CFC9B8";
shapes = (
{
closed = 1;
nodes = (
(30,196,o),
(58,220,o),
(76,220,qs),
(85,220,l),
(83,208,ls),
(76,182,o),
(76,156,qs),
(76,125,o),
(113,57,o),
(195,9,o),
(259,9,qs),
(353,9,o),
(458,76,o),
(499,203,o),
(499,302,qs),
(489,660,ls),
(489,690,o),
(464,706,o),
(443,706,q),
(443,715,l),
(553,715,l),
(553,706,l),
(544,706,o),
(535,691,o),
(535,660,qs),
(545,311,ls),
(545,209,o),
(499,75,o),
(374,0,o),
(259,0,qs),
(177,0,o),
(75,49,o),
(30,124,o),
(30,165,qs)
);
},
{
closed = 1;
nodes = (
(85,77,l),
(94,45,o),
(336,155,o),
(518,399,o),
(495,575,q),
(491,575,l),
(514,399,o),
(335,157,o),
(98,47,o),
(89,77,q)
);
},
{
closed = 1;
nodes = (
(75,138,l),
(84,106,o),
(358,149,o),
(557,334,o),
(522,508,q),
(518,508,l),
(552,334,o),
(357,150,o),
(89,107,o),
(79,138,q)
);
}
);
width = 583;
}
);
note = J;
unicode = (74,106);
},
{
glyphname = K;
layers = (
{
layerId = m01;
shapes = (
{
closed = 1;
nodes = (
(30,9,l),
(48,9,o),
(66,24,o),
(66,53,qs),
(66,363,o),
(66,672,qs),
(66,701,o),
(48,716,o),
(30,716,qs),
(29,716,l),
(154,716,l),
(155,716,ls),
(137,716,o),
(119,701,o),
(119,672,qs),
(119,301,l),
(227,406,o),
(335,511,o),
(446,619,qs),
(472,645,o),
(499,685,o),
(499,698,qs),
(499,705,o),
(485,716,o),
(472,716,qs),
(471,716,l),
(587,716,l),
(588,716,l),
(567,709,o),
(515,670,o),
(467,623,qs),
(463,619,l),
(391,551,ls),
(316,480,o),
(241,409,o),
(163,336,q),
(222,380,o),
(295,380,qs),
(345,380,o),
(415,327,o),
(437,283,qs),
(561,44,ls),
(572,21,o),
(594,9,o),
(605,9,q),
(605,0,l),
(490,0,l),
(490,9,l),
(497,9,o),
(499,11,o),
(499,18,qs),
(499,27,o),
(492,41,qs),
(490,44,l),
(375,283,ls),
(355,323,o),
(302,362,o),
(269,362,qs),
(233,362,o),
(168,324,o),
(119,283,q),
(119,53,ls),
(119,24,o),
(136,9,o),
(154,9,q),
(154,0,l),
(30,0,l)
);
},
{
closed = 1;
nodes = (
(384,348,l),
(380,343,ls),
(351,308,o),
(230,211,o),
(104,141,o),
(67,141,q),
(106,141,o),
(235,212,o),
(358,310,o),
(387,344,qs),
(390,348,l)
);
},
{
closed = 1;
nodes = (
(499,162,l),
(421,169,o),
(275,210,o),
(172,285,o),
(164,338,q),
(158,338,l),
(166,285,o),
(270,210,o),
(420,169,o),
(499,162,q)
);
}
);
width = 635;
},
{
layerId = "FEBA88C5-D8E7-4497-AAB9-B5B339CFC9B8";
shapes = (
{
closed = 1;
nodes = (
(30,9,l),
(48,9,o),
(66,24,o),
(66,53,q),
(87,370,o),
(66,672,q),
(66,701,o),
(48,716,o),
(30,716,qs),
(29,716,l),
(154,716,l),
(155,716,ls),
(137,716,o),
(119,701,o),
(119,672,qs),
(119,301,l),
(251,422,o),
(430,596,o),
(446,619,q),
(473,649,o),
(499,686,o),
(499,698,qs),
(499,705,o),
(485,716,o),
(472,716,qs),
(471,716,l),
(587,716,l),
(588,716,l),
(570,710,o),
(530,675,o),
(473,619,qs),
(469,615,l),
(437,584,ls),
(360,510,o),
(242,401,o),
(163,336,q),
(222,380,o),
(295,380,qs),
(346,380,o),
(425,325,o),
(447,283,qs),
(571,44,ls),
(582,21,o),
(596,9,o),
(605,9,q),
(605,0,l),
(490,0,l),
(490,9,l),
(497,9,o),
(499,11,o),
(499,18,qs),
(500,30,o),
(500,41,qs),
(500,44,l),
(385,283,ls),
(365,321,o),
(303,362,o),
(269,362,qs),
(233,362,o),
(168,324,o),
(119,283,q),
(119,53,ls),
(119,24,o),
(136,9,o),
(154,9,q),
(154,0,l),
(30,0,l)
);
},
{
closed = 1;
nodes = (
(384,351,l),
(380,346,ls),
(340,294,o),
(258,209,o),
(140,141,o),
(72,141,q),
(142,141,o),
(265,210,o),
(346,295,o),
(387,347,qs),
(390,351,l)
);
},
{
closed = 1;
nodes = (
(508,162,l),
(466,147,o),
(300,181,o),
(168,273,o),
(164,338,q),
(158,338,l),
(161,272,o),
(296,180,o),
(468,146,o),
(510,162,q)
);
}
);
width = 635;
}
);
note = K;
unicode = (75,107);
},
{
glyphname = L;
layers = (
{
layerId = m01;
shapes = (
{
closed = 1;
nodes = (
(30,0,l),
(30,9,l),
(51,9,o),
(77,28,o),
(77,64,qs),
(77,260,o),
(77,457,o),
(77,659,qs),
(77,681,o),
(67,701,o),
(52,706,o),
(40,706,q),
(40,715,l),
(150,715,l),
(150,706,l),
(139,706,o),
(123,689,o),
(123,659,qs),
(123,492,o),
(123,326,o),
(123,154,qs),
(123,82,o),
(123,9,q),
(207,9,ls),
(332,9,o),
(460,30,o),
(513,76,o),
(523,121,qs),
(523,122,ls),
(523,61,o),
(523,0,q)
);
},
{
closed = 1;
nodes = (
(346,3,l),
(410,43,o),
(354,214,o),
(189,367,o),
(110,379,q),
(187,367,o),
(350,213,o),
(406,42,o),
(344,3,q)
);
},
{
closed = 1;
nodes = (
(95,23,l),
(157,116,o),
(177,336,o),
(145,507,o),
(119,589,qs),
(112,608,o),
(111,615,q),
(107,615,l),
(108,610,o),
(112,594,o),
(116,584,qs),
(141,502,o),
(172,331,o),
(151,115,o),
(91,23,q)
);
}
);
width = 553;
},
{
layerId = "FEBA88C5-D8E7-4497-AAB9-B5B339CFC9B8";
shapes = (
{
closed = 1;
nodes = (
(30,0,l),
(30,9,l),
(50,9,o),
(73,28,o),
(77,64,qs),
(92,187,o),
(90,481,o),
(77,659,q),
(74,681,o),
(64,701,o),
(51,706,o),
(40,706,q),
(40,715,l),
(150,715,l),
(150,706,l),
(137,706,o),
(118,689,o),
(123,659,qs),
(141,528,o),
(137,245,o),
(127,89,qs),
(123,15,o),
(123,9,q),
(207,9,ls),
(339,9,o),
(465,25,o),
(518,71,o),
(523,121,qs),
(523,122,ls),
(532,37,o),
(523,0,q)
);
},
{
closed = 1;
nodes = (
(345,3,l),
(442,17,o),
(485,182,o),
(308,349,o),
(110,379,q),
(305,350,o),
(480,182,o),
(439,17,o),
(345,3,q)
);
},
{
closed = 1;
nodes = (
(94,23,l),
(189,66,o),
(219,270,o),
(166,473,o),
(125,575,qs),
(118,595,o),
(111,615,q),
(107,615,l),
(108,608,o),
(117,585,o),
(123,570,qs),
(163,465,o),
(214,265,o),
(184,65,o),
(92,23,q)
);
}
);
width = 553;
}
);
note = L;
unicode = (76,108);
},
{
glyphname = M;
layers = (
{
layerId = m01;
shapes = (
{
closed = 1;
nodes = (
(30,0,ls),
(49,0,o),
(78,31,o),
(78,75,qs),
(78,358,o),
(78,640,qs),
(78,683,o),
(52,706,o),
(30,706,q),
(30,715,l),
(124,715,l),
(197,551,o),
(270,386,o),
(343,222,o),
(416,57,q),
(699,715,l),
(793,715,l),
(793,706,l),
(774,706,o),
(755,690,o),
(755,658,qs),
(755,460,o),
(755,261,o),
(755,57,qs),
(755,21,o),
(771,0,o),
(782,0,qs),
(783,0,l),
(784,0,l),
(670,0,l),
(669,0,ls),
(682,0,o),
(699,20,o),
(699,57,qs),
(699,377,o),
(699,696,q),
(397,0,l),
(388,0,l),
(289,223,o),
(189,447,o),
(87,677,q),
(87,478,o),
(87,280,o),
(87,75,qs),
(87,30,o),
(107,0,o),
(124,0,qs),
(125,0,l),
(29,0,l)
);
},
{
closed = 1;
nodes = (
(82,345,l),
(102,281,o),
(172,227,qs),
(244,172,o),
(460,104,o),
(676,92,o),
(746,116,q),
(744,116,l),
(675,93,o),
(464,104,o),
(252,170,o),
(180,224,qs),
(106,279,o),
(86,345,q)
);
},
{
closed = 1;
nodes = (
(85,520,l),
(94,415,o),
(163,267,o),
(243,261,o),
(268,347,q),
(264,347,l),
(240,265,o),
(165,271,o),
(99,415,o),
(89,520,q)
);
},
{
closed = 1;
nodes = (
(712,547,l),
(692,430,o),
(548,322,o),
(391,302,o),
(300,306,q),
(301,306,ls),
(393,302,o),
(551,322,o),
(696,430,o),
(716,547,q)
);
}
);
width = 823;
},
{
layerId = "FEBA88C5-D8E7-4497-AAB9-B5B339CFC9B8";
shapes = (
{
closed = 1;
nodes = (
(30,0,ls),
(48,0,o),
(73,30,o),
(78,75,qs),
(96,303,o),
(78,640,q),
(78,683,o),
(52,706,o),
(30,706,q),
(30,715,l),
(124,715,l),
(204,592,o),
(338,317,o),
(416,98,o),
(416,57,q),
(699,715,l),
(793,715,l),
(793,706,l),
(774,706,o),
(755,690,o),
(755,658,q),
(765,539,o),
(766,199,o),
(755,57,qs),
(752,20,o),
(769,0,o),
(782,0,qs),
(783,0,l),
(784,0,l),
(670,0,l),
(669,0,ls),
(680,0,o),
(694,19,o),
(699,57,q),
(740,282,o),
(699,696,q),
(397,0,l),
(388,0,l),
(373,135,o),
(217,468,o),
(87,677,q),
(97,491,o),
(99,205,o),
(87,75,qs),
(84,31,o),
(106,0,o),
(124,0,qs),
(125,0,l),
(29,0,l)
);
},
{
closed = 1;
nodes = (
(91,339,l),
(176,297,o),
(339,212,qs),
(486,135,o),
(627,72,o),
(722,72,o),
(747,116,q),
(743,116,l),
(718,73,o),
(627,73,o),
(491,133,o),
(347,209,qs),
(200,287,o),
(93,339,q)
);
},
{
closed = 1;
nodes = (
(85,520,l),
(140,441,o),
(319,344,o),
(397,342,o),
(288,381,q),
(286,381,l),
(391,343,o),
(316,346,o),
(144,442,o),
(89,520,q)
);
},
{
closed = 1;
nodes = (
(726,555,l),
(775,468,o),
(700,342,o),
(480,288,o),
(324,306,q),
(326,306,ls),
(482,288,o),
(703,341,o),
(780,468,o),
(730,555,q)
);
}
);
width = 823;
}
);
note = M;
unicode = (77,109);
},
{
glyphname = N;
layers = (
{
layerId = m01;
shapes = (
{
closed = 1;
nodes = (
(30,9,l),
(43,9,o),
(58,16,o),
(68,44,o),
(68,75,qs),
(68,639,ls),
(68,670,o),
(58,698,o),
(43,705,o),
(30,705,q),
(30,714,l),
(124,714,l),
(336,399,o),
(547,84,q),
(547,362,o),
(547,639,qs),
(547,670,o),
(537,698,o),
(522,705,o),
(510,705,q),
(510,714,l),
(594,714,l),
(594,705,l),
(580,705,o),
(556,681,o),
(556,639,qs),
(556,320,o),
(556,0,q),
(547,0,l),
(312,343,o),
(77,686,q),
(77,75,ls),
(77,9,o),
(114,9,q),
(114,0,l),
(30,0,l)
);
},
{
closed = 1;
nodes = (
(360,357,l),
(304,232,o),
(187,356,o),
(104,644,o),
(104,714,q),
(99,714,l),
(99,643,o),
(185,351,o),
(306,227,o),
(364,357,q)
);
},
{
closed = 1;
nodes = (
(528,714,l),
(492,636,o),
(392,514,o),
(293,439,o),
(255,426,q),
(257,426,l),
(296,439,o),
(397,514,o),
(497,636,o),
(532,714,q)
);
}
);
width = 624;
},
{
layerId = "FEBA88C5-D8E7-4497-AAB9-B5B339CFC9B8";
shapes = (
{
closed = 1;
nodes = (
(30,9,l),
(43,9,o),
(58,16,o),
(68,44,o),
(68,75,qs),
(68,639,ls),
(68,670,o),
(58,698,o),
(43,705,o),
(30,705,q),
(30,714,l),
(124,714,l),
(432,325,o),
(547,84,q),
(579,323,o),
(547,639,qs),
(544,670,o),
(534,699,o),
(521,705,o),
(510,705,q),
(510,714,l),
(594,714,l),
(594,705,l),
(578,705,o),
(550,681,o),
(556,639,qs),
(596,333,o),
(566,0,q),
(547,0,l),
(384,317,o),
(77,686,q),
(77,75,ls),
(77,9,o),
(114,9,q),
(114,0,l),
(30,0,l)
);
},
{
closed = 1;
nodes = (
(360,357,l),
(343,232,o),
(223,359,o),
(104,653,o),
(104,714,q),
(99,714,l),
(99,653,o),
(223,353,o),
(347,225,o),
(364,357,q)
);
},
{
closed = 1;
nodes = (
(528,714,l),
(511,634,o),
(421,516,o),
(318,448,o),
(274,433,q),
(276,433,l),
(321,447,o),
(426,516,o),
(516,634,o),
(532,714,q)
);
}
);
width = 624;
}
);
note = N;
unicode = (78,110);
},
{
glyphname = O;
layers = (
{
layerId = m01;
shapes = (
{
closed = 1;
nodes = (
(613,479,o),
(534,640,o),
(408,715,o),
(336,715,qs),
(228,715,o),
(109,543,o),
(109,358,qs),
(109,173,o),
(227,9,o),
(336,9,qs),
(409,9,o),
(535,80,o),
(613,236,o),
(613,358,qs)
);
},
{
closed = 1;
nodes = (
(30,523,o),
(179,728,o),
(336,728,qs),
(442,728,o),
(584,630,o),
(651,463,o),
(651,358,qs),
(651,252,o),
(584,90,o),
(443,-4,o),
(336,-4,qs),
(178,-4,o),
(30,194,o),
(30,358,qs)
);
},
{
closed = 1;
nodes = (
(606,547,l),
(581,533,o),
(484,538,o),
(373,561,o),
(283,584,qs),
(164,614,o),
(109,623,q),
(109,623,l),
(165,614,o),
(279,584,qs),
(368,561,o),
(483,537,o),
(582,532,o),
(608,547,q)
);
},
{
closed = 1;
nodes = (
(86,150,l),
(261,89,o),
(488,114,o),
(601,250,o),
(614,360,qs),
(619,391,o),
(619,438,q),
(614,438,l),
(614,390,o),
(609,359,qs),
(596,249,o),
(485,114,o),
(261,90,o),
(88,150,q)
);
}
);
width = 681;
},
{
layerId = "FEBA88C5-D8E7-4497-AAB9-B5B339CFC9B8";
shapes = (
{
closed = 1;
nodes = (
(583,480,o),
(509,640,o),
(388,715,o),
(316,715,qs),
(206,715,o),
(79,542,o),
(79,358,qs),
(79,175,o),
(205,9,o),
(316,9,qs),
(389,9,o),
(509,79,o),
(583,236,o),
(583,358,qs)
);
},
{
closed = 1;
nodes = (
(30,527,o),
(161,728,o),
(316,728,qs),
(423,728,o),
(574,630,o),
(651,462,o),
(651,358,qs),
(651,254,o),
(574,90,o),
(423,-4,o),
(316,-4,qs),
(160,-4,o),
(30,189,o),
(30,358,qs)
);
},
{
closed = 1;
nodes = (
(574,547,l),
(604,508,o),
(549,476,o),
(415,491,o),
(334,517,qs),
(209,556,o),
(110,623,q),
(108,623,l),
(202,558,o),
(329,518,qs),
(413,491,o),
(551,475,o),
(609,507,o),
(578,547,q)
);
},
{
closed = 1;
nodes = (
(86,150,l),
(344,91,o),
(582,150,o),
(628,287,o),
(621,391,qs),
(620,415,o),
(619,438,q),
(614,438,l),
(615,414,o),
(616,390,qs),
(624,287,o),
(579,151,o),
(343,92,o),
(88,150,q)
);
}
);
width = 681;
}
);
note = O;
unicode = (79,111);
},
{
glyphname = P;
layers = (
{
layerId = m01;
shapes = (
{
closed = 1;
nodes = (
(256,355,ls),
(397,355,o),
(517,459,o),
(517,532,qs),
(517,606,o),
(398,708,o),
(256,708,qs),
(120,708,l),
(120,612,o),
(120,515,o),
(120,416,qs),
(120,355,l)
);
},
{
closed = 1;
nodes = (
(36,6,l),
(51,6,o),
(69,22,o),
(69,54,qs),
(69,355,o),
(69,655,qs),
(69,690,o),
(47,709,o),
(30,709,q),
(30,715,l),
(281,715,ls),
(360,715,o),
(489,676,o),
(567,594,o),
(567,532,qs),
(567,470,o),
(489,387,o),
(360,348,o),
(281,348,qs),
(120,348,l),
(120,264,o),
(120,179,o),
(120,92,qs),
(120,54,ls),
(120,22,o),
(137,6,o),
(152,6,q),
(152,0,l),
(36,0,l)
);
},
{
closed = 1;
nodes = (
(349,700,l),
(358,279,o),
(263,60,o),
(139,208,o),
(104,311,q),
(100,311,l),
(133,210,o),
(264,54,o),
(362,274,o),
(353,700,q)
);
}
);
width = 597;
},
{
layerId = "FEBA88C5-D8E7-4497-AAB9-B5B339CFC9B8";
shapes = (
{
closed = 1;
nodes = (
(256,355,ls),
(397,355,o),
(512,458,o),
(512,532,qs),
(512,607,o),
(397,708,o),
(256,708,qs),
(120,708,l),
(135,627,o),
(136,527,o),
(127,432,qs),
(120,355,l)
);
},
{
closed = 1;
nodes = (
(36,6,l),
(51,6,o),
(69,22,o),
(69,54,q),
(88,321,o),
(69,655,q),
(69,690,o),
(47,709,o),
(30,709,q),
(30,715,l),
(281,715,ls),
(360,715,o),
(495,676,o),
(577,594,o),
(577,532,qs),
(577,470,o),
(495,387,o),
(360,348,o),
(281,348,qs),
(120,348,l),
(129,250,o),
(128,148,o),
(123,86,qs),
(120,54,l),
(120,22,o),
(137,6,o),
(152,6,q),
(152,0,l),
(36,0,l)
);
},
{
closed = 1;
nodes = (
(349,700,l),
(437,297,o),
(341,73,o),
(134,223,o),
(104,311,q),
(100,311,l),
(129,224,o),
(342,70,o),
(442,293,o),
(353,700,q)
);
}
);
width = 607;
}
);
note = P;
unicode = (80,112);
},
{
glyphname = Q;
layers = (
{
layerId = m01;
shapes = (
{
closed = 1;
nodes = (
(589,538,o),
(448,704,o),
(337,704,qs),
(226,704,o),
(85,538,o),
(85,360,qs),
(85,239,o),
(153,82,o),
(266,9,o),
(337,9,qs),
(408,9,o),
(521,82,o),
(589,239,o),
(589,360,qs)
);
},
{
closed = 1;
nodes = (
(168,0,o),
(142,-3,o),
(130,-8,q),
(143,5,o),
(176,18,o),
(202,18,qs),
(238,18,l),
(134,45,o),
(30,226,o),
(30,360,qs),
(30,519,o),
(182,713,o),
(337,713,qs),
(441,713,o),
(579,622,o),
(644,463,o),
(644,360,qs),
(644,258,o),
(579,95,o),
(441,0,o),
(337,0,qs),
(292,0,o),
(274,9,q),
(297,2,o),
(349,-23,o),
(373,-36,qs),
(424,-63,o),
(495,-90,o),
(536,-90,qs),
(561,-90,o),
(583,-84,o),
(589,-72,q),
(589,-105,o),
(560,-135,o),
(527,-135,qs),
(481,-135,o),
(406,-100,o),
(353,-66,qs),
(305,-33,o),
(234,0,o),
(193,0,qs)
);
},
{
closed = 1;
nodes = (
(597,561,l),
(494,553,o),
(353,554,o),
(261,559,qs),
(224,561,o),
(141,564,o),
(103,564,q),
(103,559,l),
(140,559,o),
(223,556,o),
(259,554,qs),
(351,549,o),
(494,548,o),
(597,557,q)
);
},
{
closed = 1;
nodes = (
(600,521,l),
(580,507,o),
(419,479,o),
(268,458,qs),
(213,450,o),
(110,435,o),
(63,427,q),
(63,423,l),
(151,438,o),
(270,454,qs),
(423,475,o),
(582,503,o),
(602,517,q)
);
},
{
closed = 1;
nodes = (
(609,190,l),
(522,209,o),
(393,268,o),
(306,331,o),
(244,383,qs),
(199,422,o),
(135,472,o),
(96,495,q),
(94,491,l),
(132,468,o),
(197,417,o),
(239,381,qs),
(300,329,o),
(389,264,o),
(519,205,o),
(607,186,q)
);
}
);
width = 674;
},
{
layerId = "FEBA88C5-D8E7-4497-AAB9-B5B339CFC9B8";
shapes = (
{
closed = 1;
nodes = (
(589,538,o),
(448,704,o),
(337,704,qs),
(227,704,o),
(95,539,o),
(95,360,qs),
(95,239,o),
(158,82,o),
(267,9,o),
(337,9,qs),
(408,9,o),
(521,82,o),
(589,239,o),
(589,360,qs)
);
},
{
closed = 1;
nodes = (
(168,0,o),
(142,-3,o),
(130,-8,q),
(143,5,o),
(176,18,o),
(202,18,qs),
(238,18,l),
(134,45,o),
(30,226,o),
(30,360,qs),
(30,519,o),
(182,713,o),
(337,713,qs),
(442,713,o),
(584,621,o),
(654,462,o),
(654,360,qs),
(654,259,o),
(584,96,o),
(441,0,o),
(337,0,qs),
(292,0,o),
(274,9,q),
(297,2,o),
(349,-23,o),
(373,-36,qs),
(424,-63,o),
(495,-90,o),
(536,-90,qs),
(561,-90,o),
(583,-84,o),
(589,-72,q),
(589,-105,o),
(560,-135,o),
(527,-135,qs),
(481,-135,o),
(406,-100,o),
(353,-66,qs),
(305,-33,o),
(234,0,o),
(193,0,qs)
);
},
{
closed = 1;
nodes = (
(600,563,l),
(552,550,o),
(463,548,o),
(382,554,qs),
(328,558,o),
(185,564,o),
(103,564,q),
(103,559,l),
(183,559,o),
(324,553,o),
(378,549,qs),
(465,543,o),
(553,545,o),
(602,559,q)
);
},
{
closed = 1;
nodes = (
(599,520,l),
(579,491,o),
(405,449,o),
(282,438,qs),
(229,433,o),
(117,428,o),
(63,428,q),
(63,423,l),
(178,423,o),
(284,433,qs),
(407,444,o),
(582,488,o),
(603,518,q)
);
},
{
closed = 1;
nodes = (
(610,190,l),
(563,232,o),
(456,303,o),
(353,359,o),
(274,399,qs),
(229,422,o),
(135,472,o),
(96,495,q),
(94,491,l),
(133,468,o),
(226,418,o),
(270,396,qs),
(345,358,o),
(452,300,o),
(560,228,o),
(606,186,q)
);
}
);
width = 684;
}
);
note = Q;
unicode = (81,113);
},
{
glyphname = R;
layers = (
{
layerId = m01;
shapes = (
{
closed = 1;
nodes = (
(251,350,ls),
(346,350,o),
(461,399,o),
(509,474,o),
(509,516,qs),
(509,589,o),
(390,690,o),
(251,690,qs),
(122,690,l),
(122,520,o),
(122,350,q)
);
},
{
closed = 1;
nodes = (
(40,0,ls),
(51,0,o),
(67,16,o),
(67,47,qs),
(67,244,o),
(67,442,o),
(67,645,qs),
(67,666,o),
(57,686,o),
(43,690,o),
(30,690,q),
(30,700,l),
(278,700,ls),
(399,700,o),
(556,608,o),
(556,516,qs),
(556,437,o),
(428,348,o),
(325,340,q),
(363,336,o),
(409,319,o),
(440,286,o),
(454,258,qs),
(509,153,o),
(564,47,qs),
(577,21,o),
(604,0,o),
(620,0,qs),
(621,0,l),
(501,0,l),
(500,0,ls),
(506,0,o),
(519,12,o),
(519,18,qs),
(519,24,o),
(514,32,qs),
(512,36,o),
(509,43,o),
(509,47,q),
(470,123,o),
(430,198,o),
(390,276,qs),
(371,314,o),
(304,340,o),
(260,340,qs),
(122,340,l),
(122,194,o),
(122,47,qs),
(122,16,o),
(139,0,o),
(151,0,qs),
(152,0,l),
(39,0,l)
);
},
{
closed = 1;
nodes = (
(441,270,l),
(410,250,o),
(227,246,o),
(113,254,qs),
(70,257,l),
(115,254,ls),
(229,245,o),
(412,249,o),
(443,270,q)
);
},
{
closed = 1;
nodes = (
(434,440,o),
(279,488,o),
(178,529,qs),
(150,540,o),
(95,562,o),
(68,571,q),
(66,571,l),
(89,563,o),
(171,531,qs),
(277,488,o),
(432,440,o),
(527,431,q)
);
},
{
closed = 1;
nodes = (
(69,298,l),
(90,285,o),
(167,250,o),
(210,234,qs),
(300,201,o),
(452,175,o),
(485,198,q),
(483,198,l),
(451,177,o),
(303,201,o),
(215,233,qs),
(116,270,o),
(71,298,q)
);
}
);
width = 650;
},
{
layerId = "FEBA88C5-D8E7-4497-AAB9-B5B339CFC9B8";
shapes = (
{
closed = 1;
nodes = (
(251,350,ls),
(346,350,o),
(461,399,o),
(509,474,o),
(509,516,qs),
(509,589,o),
(390,690,o),
(251,690,qs),
(122,690,l),
(134,523,o),
(122,350,q)
);
},
{
closed = 1;
nodes = (
(40,0,ls),
(50,0,o),
(63,16,o),
(67,47,qs),
(82,242,o),
(87,517,o),
(67,645,qs),
(63,667,o),
(53,686,o),
(42,690,o),
(30,690,q),
(30,700,l),
(278,700,ls),
(399,700,o),
(556,608,o),
(556,516,qs),
(556,437,o),
(428,348,o),
(325,340,q),
(361,336,o),
(405,318,o),
(434,287,o),
(454,258,qs),
(519,157,o),
(564,47,q),
(577,21,o),
(604,0,o),
(620,0,qs),
(621,0,l),
(501,0,l),
(500,0,ls),
(506,0,o),
(519,12,o),
(519,18,qs),
(519,27,o),
(512,39,q),
(511,42,o),
(510,44,o),
(509,47,qs),
(489,97,o),
(425,228,o),
(390,276,qs),
(365,312,o),
(300,340,o),
(260,340,qs),
(122,340,l),
(138,200,o),
(122,47,q),
(122,16,o),
(139,0,o),
(151,0,qs),
(152,0,l),
(39,0,l)
);
},
{
closed = 1;
nodes = (
(440,270,l),
(427,242,o),
(260,242,o),
(126,253,qs),
(83,257,l),
(128,253,ls),
(263,242,o),
(431,242,o),
(444,270,q)
);
},
{
closed = 1;
nodes = (
(468,422,o),
(318,470,o),
(210,518,qs),
(176,533,o),
(106,563,o),
(81,571,q),
(79,571,l),
(118,558,o),
(203,519,qs),
(315,469,o),
(466,421,o),
(527,431,q)
);
},
{
closed = 1;
nodes = (
(82,298,l),
(114,291,o),
(206,264,o),
(251,250,qs),
(349,219,o),
(463,191,o),
(485,198,q),
(483,198,l),
(462,191,o),
(354,218,o),
(255,249,qs),
(140,285,o),
(84,298,q)
);
}
);
width = 650;
}
);
note = R;
unicode = (82,114);
},
{
glyphname = S;
layers = (
{
layerId = m01;
shapes = (
{
closed = 1;
nodes = (
(30,196,o),
(60,236,o),
(86,236,qs),
(106,236,l),
(79,198,o),
(79,153,qs),
(79,116,o),
(118,49,o),
(200,7,o),
(259,7,qs),
(346,7,o),
(439,84,o),
(439,153,qs),
(439,202,o),
(379,283,o),
(293,343,o),
(220,386,qs),
(156,423,o),
(81,474,o),
(30,539,o),
(30,576,qs),
(30,626,o),
(90,688,o),
(189,715,o),
(252,715,qs),
(305,715,o),
(370,702,qs),
(387,699,o),
(419,694,o),
(432,694,qs),
(460,694,o),
(460,708,q),
(467,708,l),
(467,649,o),
(467,590,q),
(460,590,l),
(443,641,o),
(342,708,o),
(259,708,qs),
(201,708,o),
(120,681,o),
(79,632,o),
(79,597,qs),
(79,563,o),
(128,502,o),
(202,450,o),
(265,412,qs),
(338,367,o),
(426,303,o),
(488,221,o),
(488,173,qs),
(488,89,o),
(373,0,o),
(259,0,qs),
(178,0,o),
(75,48,o),
(30,121,o),
(30,160,qs)
);
},
{
closed = 1;
nodes = (
(439,678,l),
(394,645,o),
(314,624,o),
(248,633,o),
(202,647,qs),
(162,658,o),
(113,667,o),
(86,666,q),
(112,667,o),
(162,656,o),
(196,646,qs),
(244,632,o),
(313,623,o),
(396,643,o),
(442,678,q)
);
},
{
closed = 1;
nodes = (
(470,236,l),
(421,117,o),
(251,135,o),
(118,360,o),
(118,514,q),
(113,514,l),
(113,359,o),
(250,132,o),
(424,114,o),
(474,236,q)
);
}
);
width = 518;
},
{
layerId = "FEBA88C5-D8E7-4497-AAB9-B5B339CFC9B8";
shapes = (
{
closed = 1;
nodes = (
(30,196,o),
(60,236,o),
(86,236,qs),
(106,236,l),
(79,198,o),
(79,153,qs),
(79,116,o),
(118,49,o),
(200,7,o),
(259,7,qs),
(346,7,o),
(439,84,o),
(439,153,qs),
(439,203,o),
(382,283,o),
(299,342,o),
(230,383,qs),
(168,420,o),
(95,471,o),
(38,537,o),
(30,576,qs),
(23,616,o),
(84,680,o),
(192,715,o),
(252,715,qs),
(305,715,o),
(370,702,qs),
(387,699,o),
(419,694,o),
(432,694,qs),
(460,694,o),
(460,708,q),
(467,708,l),
(475,654,o),
(467,590,q),
(460,590,l),
(443,641,o),
(342,708,o),
(259,708,qs),
(202,708,o),
(115,677,o),
(73,626,o),
(79,597,qs),
(88,563,o),
(144,502,o),
(218,451,o),
(276,416,qs),
(350,371,o),
(438,307,o),
(494,223,o),
(488,173,qs),
(480,87,o),
(371,0,o),
(259,0,qs),
(178,0,o),
(75,48,o),
(30,121,o),
(30,160,qs)
);
},
{
closed = 1;
nodes = (
(438,678,l),
(408,649,o),
(336,632,o),
(265,639,o),
(212,650,qs),
(171,659,o),
(113,667,o),
(86,666,q),
(111,667,o),
(159,659,o),
(206,650,qs),
(262,638,o),
(336,630,o),
(411,648,o),
(442,678,q)
);
},
{
closed = 1;
nodes = (
(470,248,l),
(472,124,o),
(305,145,o),
(130,379,o),
(117,530,q),
(113,530,l),
(125,379,o),
(305,143,o),
(477,122,o),
(474,248,q)
);
}
);
width = 518;
}
);
note = S;
unicode = (83,115);
},
{
glyphname = T;
layers = (
{
layerId = m01;
shapes = (
{
closed = 1;
nodes = (
(273,6,l),
(288,6,o),
(305,22,o),
(305,54,qs),
(305,381,o),
(305,708,q),
(203,708,o),
(96,689,o),
(47,644,o),
(37,601,q),
(30,601,l),
(30,659,o),
(30,716,q),
(631,716,l),
(631,659,o),
(631,601,q),
(624,601,l),
(614,644,o),
(565,689,o),
(458,708,o),
(355,708,q),
(355,381,o),
(355,54,qs),
(355,22,o),
(373,6,o),
(388,6,q),
(388,0,l),
(273,0,l)
);
},
{
closed = 1;
nodes = (
(35,669,l),
(44,646,o),
(321,624,o),
(608,636,o),
(625,657,q),
(621,657,l),
(604,637,o),
(321,625,o),
(47,646,o),
(39,669,q)
);
},
{
closed = 1;
nodes = (
(586,693,l),
(491,607,o),
(265,601,o),
(87,679,o),
(87,698,q),
(82,698,l),
(82,680,o),
(264,601,o),
(493,606,o),
(590,693,q)
);
}
);
width = 661;
},
{
layerId = "FEBA88C5-D8E7-4497-AAB9-B5B339CFC9B8";
shapes = (
{
closed = 1;
nodes = (
(273,6,l),
(287,6,o),
(302,22,o),
(305,54,qs),
(322,381,o),
(305,708,q),
(204,708,o),
(103,689,o),
(55,646,o),
(37,601,q),
(30,601,l),
(39,670,o),
(30,716,q),
(631,716,l),
(643,664,o),
(631,601,q),
(624,601,l),
(620,643,o),
(571,689,o),
(459,708,o),
(355,708,q),
(379,359,o),
(355,54,q),
(355,22,o),
(373,6,o),
(388,6,q),
(388,0,l),
(273,0,l)
);
},
{
closed = 1;
nodes = (
(60,658,l),
(98,636,o),
(397,628,o),
(661,646,o),
(624,657,q),
(622,657,l),
(655,647,o),
(394,629,o),
(100,637,o),
(62,658,q)
);
},
{
closed = 1;
nodes = (
(586,693,l),
(586,647,o),
(425,600,o),
(196,635,o),
(98,698,q),
(96,698,l),
(194,634,o),
(426,599,o),
(591,647,o),
(591,693,q)
);
}
);
width = 661;
}
);
note = T;
unicode = (84,116);
},
{
glyphname = U;
layers = (
{
layerId = m01;
shapes = (
{
closed = 1;
nodes = (
(66,662,ls),
(66,708,o),
(30,708,q),
(30,716,l),
(149,716,l),
(149,708,l),
(112,708,o),
(112,662,qs),
(112,285,ls),
(112,191,o),
(179,66,o),
(284,8,o),
(342,8,qs),
(433,8,o),
(563,135,o),
(563,285,qs),
(563,662,ls),
(563,708,o),
(526,708,q),
(526,716,l),
(645,716,l),
(645,708,l),
(609,708,o),
(609,662,qs),
(609,294,ls),
(609,144,o),
(475,0,o),
(342,0,qs),
(206,0,o),
(66,153,o),
(66,294,qs)
);
},
{
closed = 1;
nodes = (
(106,461,l),
(147,412,o),
(358,439,o),
(566,543,o),
(595,593,q),
(591,593,l),
(562,543,o),
(357,440,o),
(151,413,o),
(110,461,q)
);
},
{
closed = 1;
nodes = (
(106,461,l),
(179,343,o),
(352,326,o),
(521,470,o),
(595,593,q),
(591,593,l),
(517,470,o),
(352,327,o),
(182,344,o),
(110,461,q)
);
},
{
closed = 1;
nodes = (
(100,579,l),
(97,516,o),
(282,415,o),
(530,364,o),
(603,373,q),
(603,373,l),
(530,365,o),
(283,416,o),
(101,517,o),
(104,579,q)
);
},
{
closed = 1;
nodes = (
(106,201,l),
(122,165,o),
(324,151,o),
(551,191,o),
(597,226,q),
(593,226,l),
(547,192,o),
(324,152,o),
(126,166,o),
(110,201,q)
);
}
);
width = 675;
},
{
layerId = "FEBA88C5-D8E7-4497-AAB9-B5B339CFC9B8";
shapes = (
{
closed = 1;
nodes = (
(66,662,l),
(66,708,o),
(30,708,q),
(30,716,l),
(149,716,l),
(149,708,l),
(112,708,o),
(112,662,q),
(127,305,ls),
(134,200,o),
(202,69,o),
(303,11,o),
(362,11,qs),
(452,11,o),
(580,125,o),
(580,257,q),
(563,662,l),
(563,708,o),
(526,708,q),
(526,716,l),
(645,716,l),
(645,708,l),
(609,708,o),
(609,662,qs),
(621,294,l),
(621,143,o),
(494,0,o),
(362,0,qs),
(230,0,o),
(92,170,o),
(86,314,qs)
);
},
{
closed = 1;
nodes = (
(107,478,l),
(202,419,o),
(404,437,o),
(563,538,o),
(595,593,q),
(591,593,l),
(558,538,o),
(402,438,o),
(203,420,o),
(109,478,q)
);
},
{
closed = 1;
nodes = (
(106,448,l),
(222,329,o),
(449,359,o),
(599,532,o),
(595,593,q),
(591,593,l),
(595,531,o),
(448,360,o),
(225,331,o),
(110,448,q)
);
},
{
closed = 1;
nodes = (
(100,579,l),
(197,475,o),
(415,373,o),
(585,362,o),
(605,385,q),
(601,385,l),
(581,363,o),
(415,374,o),
(200,475,o),
(104,579,q)
);
},
{
closed = 1;
nodes = (
(138,211,l),
(163,153,o),
(396,121,o),
(606,175,o),
(597,226,q),
(593,226,l),
(601,175,o),
(395,122,o),
(167,154,o),
(142,211,q)
);
}
);
width = 675;
}
);
note = U;
unicode = (85,117);
},
{
glyphname = V;
layers = (
{
layerId = m01;
shapes = (
{
closed = 1;
nodes = (
(378,0,l),
(223,340,o),
(67,679,qs),
(60,693,o),
(43,707,o),
(30,707,q),
(30,716,l),
(133,716,l),
(133,707,l),
(126,707,o),
(123,705,o),
(123,697,qs),
(123,683,o),
(123,669,q),
(265,363,o),
(406,57,q),
(534,340,o),
(661,622,q),
(670,650,o),
(670,679,qs),
(670,692,o),
(659,707,o),
(651,707,q),
(651,716,l),
(735,716,l),
(735,707,l),
(726,707,o),
(692,672,o),
(679,640,qs),
(533,320,o),
(387,0,q)
);
},
{
closed = 1;
nodes = (
(702,716,l),
(686,687,o),
(345,645,o),
(115,627,qs),
(104,626,o),
(92,625,q),
(105,626,o),
(118,627,qs),
(363,647,o),
(690,687,o),
(706,716,q)
);
},
{
closed = 1;
nodes = (
(541,343,l),
(481,333,o),
(352,359,o),
(261,389,qs),
(231,399,o),
(200,408,q),
(198,408,l),
(230,398,o),
(261,388,qs),
(352,358,o),
(480,332,o),
(541,343,q)
);
}
);
width = 765;
},
{
layerId = "FEBA88C5-D8E7-4497-AAB9-B5B339CFC9B8";
shapes = (
{
closed = 1;
nodes = (
(378,0,l),
(263,324,o),
(67,679,qs),
(60,693,o),
(43,707,o),
(30,707,q),
(30,716,l),
(133,716,l),
(133,707,l),
(126,707,o),
(120,704,o),
(117,700,qs),
(110,690,o),
(123,669,qs),
(307,333,o),
(406,57,q),
(537,276,o),
(661,622,qs),
(670,650,o),
(670,679,qs),
(670,692,o),
(659,707,o),
(651,707,q),
(651,716,l),
(735,716,l),
(735,707,l),
(726,707,o),
(692,672,o),
(679,640,q),
(564,296,o),
(387,0,q)
);
},
{
closed = 1;
nodes = (
(702,716,l),
(722,678,o),
(472,645,o),
(249,634,qs),
(174,630,o),
(99,625,q),
(150,629,o),
(250,634,qs),
(475,645,o),
(726,678,o),
(706,716,q)
);
},
{
closed = 1;
nodes = (
(561,343,l),
(532,330,o),
(421,351,o),
(326,378,qs),
(251,399,o),
(210,408,q),
(208,408,l),
(234,402,o),
(324,377,qs),
(425,349,o),
(533,330,o),
(563,343,q)
);
}
);
width = 765;
}
);
note = V;
unicode = (86,118);
},
{
glyphname = W;
layers = (
{
layerId = m01;
shapes = (
{
closed = 1;
nodes = (
(198,331,o),
(39,677,q),
(38,681,o),
(37,684,qs),
(29,702,o),
(13,716,o),
(0,716,qs),
(-1,716,l),
(108,716,l),
(109,716,ls),
(102,716,o),
(97,706,o),
(97,697,qs),
(97,683,o),
(97,668,q),
(242,355,o),
(386,42,q),
(589,504,l),
(502,677,l),
(495,700,o),
(478,716,o),
(463,716,qs),
(462,716,l),
(569,716,l),
(570,716,l),
(559,706,o),
(559,697,qs),
(559,690,o),
(563,680,o),
(569,668,qs),
(709,355,o),
(849,42,q),
(1108,620,l),
(1114,638,ls),
(1127,669,o),
(1127,688,qs),
(1127,716,o),
(1099,716,qs),
(1098,716,l),
(1196,716,l),
(1197,716,ls),
(1180,716,o),
(1141,679,o),
(1127,640,q),
(829,-16,l),
(820,-16,l),
(785,60,ls),
(720,200,o),
(656,341,o),
(589,485,q),
(367,-16,l),
(356,-16,l)
);
},
{
closed = 1;
nodes = (
(1093,572,l),
(1043,553,o),
(546,576,o),
(157,602,qs),
(115,605,o),
(73,608,q),
(128,604,o),
(182,600,qs),
(548,574,o),
(1046,552,o),
(1095,572,q)
);
}
);
width = 1147;
},
{
layerId = "FEBA88C5-D8E7-4497-AAB9-B5B339CFC9B8";
shapes = (
{
closed = 1;
nodes = (
(231,333,o),
(39,677,qs),
(36,683,o),
(35,684,q),
(24,704,o),
(13,716,o),
(0,716,qs),
(-1,716,l),
(108,716,l),
(109,716,ls),
(101,716,o),
(89,702,o),
(89,697,qs),
(89,686,o),
(97,668,q),
(275,338,o),
(386,42,q),
(589,504,l),
(502,677,l),
(495,700,o),
(478,716,o),
(463,716,qs),
(462,716,l),
(569,716,l),
(570,716,l),
(559,706,o),
(559,697,qs),
(559,690,o),
(563,680,o),
(569,668,qs),
(727,376,o),
(849,42,q),
(1108,620,l),
(1114,638,ls),
(1127,669,o),
(1127,688,qs),
(1127,716,o),
(1099,716,qs),
(1098,716,l),
(1196,716,l),
(1197,716,ls),
(1180,716,o),
(1141,679,o),
(1127,640,q),
(829,-16,l),
(820,-16,l),
(787,65,ls),
(725,217,o),
(640,411,o),
(593,495,q),
(367,-16,l),
(356,-16,l)
);
},
{
closed = 1;
nodes = (
(1090,572,l),
(1050,537,o),
(691,552,o),
(381,583,qs),
(164,604,o),
(102,608,q),
(192,602,o),
(384,582,qs),
(693,551,o),
(1053,536,o),
(1094,572,q)
);
}
);
width = 1147;
}
);
note = W;
unicode = (87,119);
},
{
glyphname = X;
layers = (
{
layerId = m01;
shapes = (
{
closed = 1;
nodes = (
(30,0,ls),
(52,0,o),
(100,52,o),
(137,112,q),
(309,349,l),
(259,423,o),
(157,570,o),
(107,644,qs),
(90,669,ls),
(77,689,o),
(50,704,o),
(30,704,q),
(30,716,l),
(155,716,l),
(155,704,l),
(151,704,o),
(149,703,o),
(149,698,qs),
(149,694,ls),
(149,683,o),
(156,661,o),
(166,650,q),
(185,621,ls),
(237,541,o),
(290,461,o),
(344,378,q),
(493,580,l),
(557,660,o),
(557,698,qs),
(557,702,o),
(547,704,o),
(540,704,q),
(540,716,l),
(629,716,l),
(629,704,l),
(594,704,o),
(522,603,qs),
(350,367,l),
(422,261,o),
(495,156,o),
(569,47,q),
(581,33,ls),
(598,12,o),
(614,0,o),
(629,0,qs),
(630,0,l),
(504,0,l),
(503,0,ls),
(510,0,o),
(510,17,qs),
(510,31,o),
(504,53,o),
(493,65,q),
(404,201,o),
(315,337,q),
(166,130,ls),
(130,81,o),
(102,31,o),
(102,17,qs),
(102,12,o),
(112,0,o),
(119,0,qs),
(120,0,l),
(29,0,l)
);
},
{
closed = 1;
nodes = (
(486,559,l),
(448,526,o),
(269,539,o),
(112,635,o),
(95,716,q),
(91,716,l),
(108,635,o),
(269,538,o),
(451,525,o),
(490,559,q)
);
}
);
width = 659;
},
{
layerId = "FEBA88C5-D8E7-4497-AAB9-B5B339CFC9B8";
shapes = (
{
closed = 1;
nodes = (
(30,0,ls),
(52,0,o),
(100,52,o),
(137,112,q),
(312,353,l),
(274,423,o),
(179,555,o),
(108,645,qs),
(90,669,ls),
(72,690,o),
(48,704,o),
(30,704,q),
(30,716,l),
(155,716,l),
(155,704,l),
(151,704,o),
(149,703,o),
(149,698,qs),
(149,694,ls),
(149,682,o),
(154,663,o),
(166,650,qs),
(188,622,ls),
(251,541,o),
(321,442,o),
(349,384,q),
(493,580,l),
(557,660,o),
(557,698,qs),
(557,702,o),
(547,704,o),
(540,704,q),
(540,716,l),
(629,716,l),
(629,704,l),
(594,704,o),
(522,603,qs),
(355,373,l),
(416,302,o),
(519,142,o),
(569,47,qs),
(577,33,ls),
(589,15,o),
(613,0,o),
(629,0,qs),
(630,0,l),
(504,0,l),
(503,0,ls),
(510,0,o),
(510,17,qs),
(510,26,o),
(503,50,o),
(497,65,qs),
(432,203,o),
(319,342,q),
(166,130,ls),
(130,81,o),
(102,31,o),
(102,17,qs),
(102,12,o),
(112,0,o),
(119,0,qs),
(120,0,l),
(29,0,l)
);
},
{
closed = 1;
nodes = (
(490,559,l),
(543,541,o),
(332,558,o),
(122,640,o),
(95,716,q),
(91,716,l),
(118,640,o),
(334,557,o),
(548,540,o),
(492,559,q)
);
}
);
width = 659;
}
);
note = X;
unicode = (88,120);
},
{
glyphname = Y;
layers = (
{
layerId = m01;
shapes = (
{
closed = 1;
nodes = (
(264,0,ls),
(276,0,o),
(292,17,o),
(292,47,qs),
(292,234,l),
(180,454,o),
(68,673,qs),
(61,686,o),
(38,701,o),
(30,701,q),
(30,711,l),
(133,711,l),
(133,701,l),
(126,701,o),
(123,699,o),
(123,692,qs),
(124,681,o),
(133,664,qs),
(236,459,o),
(339,253,q),
(526,616,l),
(535,641,ls),
(539,652,o),
(545,674,o),
(545,682,qs),
(545,695,o),
(535,701,o),
(526,701,q),
(526,711,l),
(601,711,l),
(601,701,l),
(592,701,o),
(567,679,o),
(554,654,qs),
(339,243,l),
(339,47,ls),
(339,16,o),
(358,0,o),
(377,0,qs),
(378,0,l),
(263,0,l)
);
},
{
closed = 1;
nodes = (
(563,711,l),
(554,414,o),
(324,145,o),
(83,371,o),
(54,711,q),
(50,711,l),
(79,370,o),
(324,144,o),
(558,414,o),
(567,711,q)
);
}
);
width = 631;
},
{
layerId = "FEBA88C5-D8E7-4497-AAB9-B5B339CFC9B8";
shapes = (
{
closed = 1;
nodes = (
(264,0,ls),
(276,0,o),
(292,17,o),
(292,47,qs),
(292,234,l),
(214,457,o),
(68,673,q),
(61,686,o),
(38,701,o),
(30,701,q),
(30,711,l),
(133,711,l),
(133,701,l),
(126,701,o),
(123,699,o),
(123,692,qs),
(124,681,o),
(133,664,q),
(255,474,o),
(339,253,q),
(526,616,l),
(535,641,ls),
(539,652,o),
(545,674,o),
(545,682,qs),
(545,695,o),
(535,701,o),
(526,701,q),
(526,711,l),
(601,711,l),
(601,701,l),
(592,701,o),
(567,679,o),
(554,654,qs),
(339,243,l),
(339,47,ls),
(339,16,o),
(358,0,o),
(377,0,qs),
(378,0,l),
(263,0,l)
);
},
{
closed = 1;
nodes = (
(563,711,l),
(606,416,o),
(399,144,o),
(115,372,o),
(54,711,q),
(50,711,l),
(111,371,o),
(400,143,o),
(610,415,o),
(567,711,q)
);
}
);
width = 631;
}
);
note = Y;
unicode = (89,121);
},
{
glyphname = Z;
layers = (
{
layerId = m01;
shapes = (
{
closed = 1;
nodes = (
(160,221,o),
(291,442,o),
(425,669,q),
(431,675,o),
(434,688,o),
(434,698,qs),
(434,704,o),
(423,706,o),
(406,706,qs),
(268,706,o),
(143,694,o),
(87,652,o),
(78,604,q),
(68,604,l),
(68,715,l),
(511,715,l),
(383,501,o),
(256,286,o),
(124,65,q),
(119,54,o),
(116,37,o),
(116,31,qs),
(116,29,ls),
(116,15,o),
(127,9,o),
(143,9,qs),
(306,9,o),
(433,19,o),
(496,60,o),
(511,113,q),
(511,114,l),
(511,0,l),
(30,0,l)
);
},
{
closed = 1;
nodes = (
(476,715,l),
(499,494,o),
(381,295,o),
(258,478,o),
(273,715,q),
(269,715,l),
(253,477,o),
(381,294,o),
(504,493,o),
(480,715,q)
);
},
{
closed = 1;
nodes = (
(308,715,l),
(336,574,o),
(263,389,o),
(155,497,o),
(134,714,q),
(130,714,l),
(151,493,o),
(262,385,o),
(340,574,o),
(312,715,q)
);
}
);
width = 541;
},
{
layerId = "FEBA88C5-D8E7-4497-AAB9-B5B339CFC9B8";
shapes = (
{
closed = 1;
nodes = (
(168,171,o),
(369,512,o),
(428,669,qs),
(431,676,o),
(434,690,o),
(434,698,qs),
(434,704,o),
(423,706,o),
(406,706,qs),
(268,706,o),
(143,694,o),
(87,652,o),
(78,604,q),
(68,604,l),
(68,715,l),
(511,715,l),
(427,515,o),
(230,185,o),
(124,65,q),
(116,54,o),
(112,42,o),
(112,35,qs),
(112,33,ls),
(113,19,o),
(128,9,o),
(143,9,qs),
(306,9,o),
(433,19,o),
(496,60,o),
(511,113,q),
(511,114,l),
(511,0,l),
(30,0,l)
);
},
{
closed = 1;
nodes = (
(476,715,l),
(543,500,o),
(423,297,o),
(258,480,o),
(273,715,q),
(269,715,l),
(253,480,o),
(423,295,o),
(548,499,o),
(480,715,q)
);
},
{
closed = 1;
nodes = (
(308,715,l),
(378,590,o),
(331,399,o),
(186,499,o),
(134,714,q),
(130,714,l),
(182,495,o),
(330,395,o),
(382,590,o),
(312,715,q)
);
}
);
width = 541;
}
);
note = Z;
unicode = (90,122);
},
{
glyphname = zero;
layers = (
{
layerId = m01;
shapes = (
{
closed = 1;
nodes = (
(580,529,o),
(439,691,o),
(323,691,qs),
(213,691,o),
(75,529,o),
(75,354,qs),
(75,235,o),
(141,80,o),
(253,8,o),
(323,8,qs),
(397,8,o),
(513,80,o),
(580,234,o),
(580,354,qs)
);
},
{
closed = 1;
nodes = (
(30,509,o),
(177,700,o),
(323,700,qs),
(426,700,o),
(561,611,o),
(625,455,o),
(625,354,qs),
(625,253,o),
(561,93,o),
(426,-1,o),
(323,-1,qs),
(225,-1,o),
(93,93,o),
(30,253,o),
(30,354,qs)
);
},
{
closed = 1;
nodes = (
(493,653,l),
(535,357,o),
(360,51,o),
(130,255,o),
(99,592,q),
(95,592,l),
(126,253,o),
(360,49,o),
(539,357,o),
(497,653,q)
);
}
);
width = 655;
},
{
layerId = "FEBA88C5-D8E7-4497-AAB9-B5B339CFC9B8";
shapes = (
{
closed = 1;
nodes = (
(590,528,o),
(440,691,o),
(323,691,qs),
(215,691,o),
(85,530,o),
(85,354,qs),
(85,234,o),
(147,79,o),
(254,8,o),
(323,8,qs),
(398,8,o),
(518,80,o),
(590,235,o),
(590,354,qs)
);
},
{
closed = 1;
nodes = (
(30,509,o),
(177,700,o),
(323,700,qs),
(426,700,o),
(566,610,o),
(635,454,o),
(635,354,qs),
(635,254,o),
(566,93,o),
(426,-1,o),
(323,-1,qs),
(225,-1,o),
(93,93,o),
(30,253,o),
(30,354,qs)
);
},
{
closed = 1;
nodes = (
(495,653,l),
(558,369,o),
(407,63,o),
(160,255,o),
(99,592,q),
(95,592,l),
(156,253,o),
(406,61,o),
(562,369,o),
(499,653,q)
);
}
);
width = 665;
}
);
note = zero;
unicode = 48;
},
{
glyphname = one;
layers = (
{
layerId = m01;
shapes = (
{
closed = 1;
nodes = (
(30,6,l),
(45,6,o),
(62,22,o),
(62,54,qs),
(62,325,o),
(62,595,qs),
(62,621,o),
(50,643,o),
(30,643,q),
(30,649,l),
(52,649,o),
(104,687,o),
(111,716,q),
(111,385,o),
(111,54,qs),
(111,23,o),
(129,6,o),
(144,6,q),
(144,0,l),
(30,0,l)
);
},
{
closed = 1;
nodes = (
(36,649,l),
(36,566,o),
(36,483,qs),
(35,374,o),
(38,260,o),
(49,213,o),
(62,241,q),
(62,243,l),
(50,218,o),
(39,260,o),
(37,362,o),
(37,466,qs),
(37,585,o),
(36,649,q)
);
}
);
width = 174;
},
{
layerId = "FEBA88C5-D8E7-4497-AAB9-B5B339CFC9B8";
shapes = (
{
closed = 1;
nodes = (
(30,6,l),
(45,6,o),
(62,22,o),
(62,54,q),
(77,349,o),
(62,595,q),
(62,621,o),
(50,643,o),
(30,643,q),
(30,649,l),
(52,649,o),
(104,687,o),
(111,716,q),
(121,270,o),
(111,54,qs),
(111,23,o),
(129,6,o),
(144,6,q),
(144,0,l),
(30,0,l)
);
},
{
closed = 1;
nodes = (
(36,648,l),
(54,574,o),
(68,484,qs),
(81,401,o),
(90,270,o),
(81,218,o),
(69,243,q),
(69,241,l),
(81,215,o),
(91,262,o),
(84,386,o),
(72,466,qs),
(58,555,o),
(36,650,q)
);
}
);
width = 174;
}
);
note = one;
unicode = 49;
},
{
glyphname = two;
layers = (
{
layerId = m01;
shapes = (
{
closed = 1;
nodes = (
(30,8,ls),
(30,63,o),
(91,162,o),
(178,243,o),
(251,302,qs),
(318,355,o),
(399,428,o),
(453,514,o),
(453,560,qs),
(453,609,o),
(400,676,o),
(312,708,o),
(259,708,qs),
(183,708,o),
(76,632,o),
(76,560,qs),
(76,517,o),
(104,479,q),
(84,479,ls),
(58,479,o),
(30,517,o),
(30,552,qs),
(30,595,o),
(78,670,o),
(181,716,o),
(259,716,qs),
(326,716,o),
(430,675,o),
(488,600,o),
(488,552,qs),
(488,501,o),
(431,407,o),
(348,329,o),
(278,272,qs),
(210,217,o),
(130,142,o),
(76,55,o),
(76,8,q),
(177,8,ls),
(300,8,o),
(426,28,o),
(478,75,o),
(488,121,qs),
(488,122,l),
(488,0,l),
(30,0,l)
);
},
{
closed = 1;
nodes = (
(472,612,l),
(434,593,o),
(299,608,o),
(217,631,qs),
(168,645,o),
(94,670,q),
(92,670,l),
(144,652,o),
(213,631,qs),
(297,607,o),
(435,592,o),
(474,612,q)
);
},
{
closed = 1;
nodes = (
(476,598,l),
(451,576,o),
(350,560,o),
(237,562,o),
(154,568,qs),
(119,570,o),
(53,574,o),
(33,573,q),
(58,574,o),
(146,568,qs),
(231,562,o),
(348,558,o),
(455,574,o),
(480,598,q)
);
}
);
width = 518;
},
{
layerId = "FEBA88C5-D8E7-4497-AAB9-B5B339CFC9B8";
shapes = (
{
closed = 1;
nodes = (
(30,4,ls),
(30,59,o),
(92,160,o),
(183,243,o),
(257,300,qs),
(327,355,o),
(407,428,o),
(463,514,o),
(463,560,qs),
(463,609,o),
(405,675,o),
(312,708,o),
(259,708,qs),
(183,708,o),
(76,632,o),
(76,560,qs),
(76,517,o),
(104,479,q),
(84,479,ls),
(58,479,o),
(30,517,o),
(30,552,qs),
(30,595,o),
(78,670,o),
(181,716,o),
(259,716,qs),
(327,716,o),
(436,674,o),
(498,600,o),
(498,552,qs),
(498,501,o),
(441,407,o),
(358,329,o),
(288,272,qs),
(220,217,o),
(140,142,o),
(86,55,o),
(86,8,q),
(177,8,ls),
(300,8,o),
(426,28,o),
(478,75,o),
(488,121,qs),
(488,122,l),
(488,0,l),
(30,0,l)
);
},
{
closed = 1;
nodes = (
(480,612,l),
(463,589,o),
(348,606,o),
(246,634,qs),
(139,664,o),
(93,670,q),
(93,670,l),
(136,664,o),
(242,634,qs),
(351,605,o),
(466,587,o),
(484,612,q)
);
},
{
closed = 1;
nodes = (
(486,598,l),
(476,575,o),
(417,558,o),
(337,560,o),
(265,566,qs),
(180,572,o),
(86,576,o),
(33,573,q),
(118,577,o),
(260,565,qs),
(334,559,o),
(418,557,o),
(480,574,o),
(490,598,q)
);
}
);
width = 518;
}
);
note = two;
unicode = 50;
},
{
glyphname = three;
layers = (
{
layerId = m01;
shapes = (
{
closed = 1;
nodes = (
(30,191,o),
(67,236,o),
(94,236,qs),
(101,236,o),
(105,234,o),
(112,227,q),
(85,199,o),
(85,154,qs),
(85,81,o),
(192,9,o),
(284,9,qs),
(371,9,o),
(465,107,o),
(465,190,qs),
(465,236,o),
(417,322,o),
(323,386,o),
(257,399,q),
(351,419,o),
(447,512,o),
(447,580,qs),
(447,613,o),
(409,671,o),
(331,707,o),
(275,707,qs),
(219,707,o),
(132,672,o),
(81,618,o),
(76,589,q),
(67,589,l),
(67,648,o),
(67,707,q),
(76,707,l),
(76,698,o),
(103,698,qs),
(125,698,o),
(163,705,qs),
(229,716,o),
(275,716,qs),
(369,716,o),
(502,646,o),
(502,571,qs),
(502,518,o),
(424,444,o),
(329,406,o),
(293,399,q),
(363,390,o),
(466,326,o),
(520,237,o),
(520,190,qs),
(520,136,o),
(462,49,o),
(355,0,o),
(284,0,qs),
(152,0,o),
(30,94,o),
(30,163,qs)
);
},
{
closed = 1;
nodes = (
(369,560,o),
(310,304,o),
(166,174,o),
(51,217,q),
(51,213,l),
(165,170,o),
(311,302,o),
(371,561,o),
(364,707,q)
);
}
);
width = 550;
},
{
layerId = "FEBA88C5-D8E7-4497-AAB9-B5B339CFC9B8";
shapes = (
{
closed = 1;
nodes = (
(30,191,o),
(67,236,o),
(94,236,qs),
(101,236,o),
(105,234,o),
(112,227,q),
(85,199,o),
(85,154,qs),
(85,81,o),
(192,9,o),
(284,9,qs),
(372,9,o),
(474,108,o),
(474,190,qs),
(474,236,o),
(422,322,o),
(323,386,o),
(257,399,q),
(352,419,o),
(455,513,o),
(455,580,qs),
(455,613,o),
(413,671,o),
(331,707,o),
(275,707,qs),
(219,707,o),
(132,672,o),
(81,618,o),
(76,589,q),
(67,589,l),
(80,659,o),
(67,707,q),
(76,707,l),
(76,698,o),
(103,698,qs),
(125,698,o),
(163,705,qs),
(229,716,o),
(275,716,qs),
(369,716,o),
(502,646,o),
(502,571,qs),
(502,518,o),
(424,444,o),
(329,406,o),
(293,399,q),
(363,390,o),
(466,326,o),
(520,237,o),
(520,190,qs),
(520,136,o),
(462,49,o),
(355,0,o),
(284,0,qs),
(152,0,o),
(30,94,o),
(30,163,qs)
);
},
{
closed = 1;
nodes = (
(382,546,o),
(335,291,o),
(183,172,o),
(51,217,q),
(51,213,l),
(183,168,o),
(336,289,o),
(383,546,o),
(364,707,q)
);
}
);
width = 550;
}
);
note = three;
unicode = 51;
},
{
glyphname = four;
layers = (
{
layerId = m01;
shapes = (
{
closed = 1;
nodes = (
(398,0,ls),
(410,0,o),
(426,17,o),
(426,47,qs),
(426,97,o),
(426,147,o),
(426,198,q),
(30,198,l),
(30,208,ls),
(30,247,o),
(70,320,o),
(128,382,o),
(177,427,qs),
(228,474,o),
(289,539,o),
(331,618,o),
(331,660,qs),
(331,674,o),
(320,709,o),
(313,716,q),
(344,716,o),
(389,687,o),
(389,660,qs),
(389,625,o),
(341,551,o),
(274,486,o),
(214,433,qs),
(156,383,o),
(87,316,o),
(40,243,o),
(40,208,q),
(426,208,l),
(426,236,o),
(426,264,o),
(426,293,qs),
(426,318,o),
(417,340,o),
(398,340,qs),
(397,340,ls),
(419,340,o),
(469,381,o),
(483,415,q),
(483,231,o),
(483,47,qs),
(483,16,o),
(499,0,o),
(511,0,qs),
(512,0,l),
(397,0,l)
);
},
{
closed = 1;
nodes = (
(481,270,l),
(469,265,o),
(320,289,o),
(237,308,qs),
(147,329,o),
(100,349,q),
(98,349,l),
(140,332,o),
(225,310,qs),
(310,289,o),
(471,263,o),
(483,270,q)
);
},
{
closed = 1;
nodes = (
(483,357,l),
(450,355,o),
(391,389,o),
(344,445,o),
(326,480,qs),
(307,519,o),
(297,554,q),
(297,552,l),
(306,516,o),
(326,477,qs),
(344,442,o),
(391,385,o),
(450,351,o),
(483,353,q)
);
}
);
width = 541;
},
{
layerId = "FEBA88C5-D8E7-4497-AAB9-B5B339CFC9B8";
shapes = (
{
closed = 1;
nodes = (
(398,0,ls),
(409,0,o),
(426,16,o),
(431,47,qs),
(436,91,o),
(436,164,o),
(426,198,q),
(30,198,l),
(30,208,ls),
(30,247,o),
(70,320,o),
(128,382,o),
(177,427,qs),
(228,474,o),
(289,539,o),
(331,618,o),
(331,660,qs),
(331,674,o),
(320,709,o),
(313,716,q),
(345,716,o),
(399,686,o),
(399,660,qs),
(399,625,o),
(350,551,o),
(280,485,o),
(219,433,qs),
(160,384,o),
(88,316,o),
(40,243,o),
(40,208,q),
(426,208,l),
(432,221,o),
(438,269,o),
(437,293,qs),
(434,316,o),
(417,340,o),
(398,340,qs),
(397,340,ls),
(419,340,o),
(469,381,o),
(483,415,q),
(495,195,o),
(483,47,q),
(483,16,o),
(499,0,o),
(511,0,qs),
(512,0,l),
(397,0,l)
);
},
{
closed = 1;
nodes = (
(488,270,l),
(470,273,o),
(364,294,o),
(286,310,qs),
(192,329,o),
(98,348,q),
(98,348,l),
(186,330,o),
(274,312,qs),
(356,295,o),
(484,269,o),
(488,270,q)
);
},
{
closed = 1;
nodes = (
(486,357,l),
(457,347,o),
(408,376,o),
(369,432,o),
(344,478,qs),
(316,530,o),
(297,555,q),
(297,551,l),
(316,526,o),
(344,474,qs),
(369,428,o),
(408,372,o),
(457,343,o),
(486,353,q)
);
}
);
width = 541;
}
);
note = four;
unicode = 52;
},
{
glyphname = five;
layers = (
{
layerId = m01;
shapes = (
{
closed = 1;
nodes = (
(39,194,o),
(68,237,o),
(94,237,qs),
(112,237,l),
(97,215,o),
(85,181,o),
(85,155,qs),
(85,83,o),
(190,9,o),
(276,9,qs),
(366,9,o),
(449,107,o),
(449,182,qs),
(449,268,o),
(363,368,o),
(185,411,o),
(39,411,qs),
(30,411,l),
(94,713,l),
(477,713,l),
(477,668,o),
(477,622,q),
(468,622,l),
(468,642,o),
(412,658,o),
(350,658,qs),
(85,658,l),
(39,420,l),
(177,420,o),
(380,384,o),
(504,287,o),
(504,201,qs),
(504,145,o),
(453,54,o),
(351,0,o),
(276,0,qs),
(150,0,o),
(39,94,o),
(39,164,qs)
);
},
{
closed = 1;
nodes = (
(438,713,l),
(392,618,o),
(261,606,o),
(146,684,o),
(128,713,q),
(124,713,l),
(141,684,o),
(260,604,o),
(396,616,o),
(442,713,q)
);
}
);
width = 534;
},
{
layerId = "FEBA88C5-D8E7-4497-AAB9-B5B339CFC9B8";
shapes = (
{
closed = 1;
nodes = (
(39,194,o),
(68,237,o),
(94,237,qs),
(112,237,l),
(97,215,o),
(85,181,o),
(85,155,qs),
(85,83,o),
(190,9,o),
(276,9,qs),
(368,9,o),
(449,99,o),
(449,182,qs),
(449,268,o),
(363,368,o),
(185,411,o),
(39,411,qs),
(30,411,l),
(94,713,l),
(477,713,l),
(484,673,o),
(477,622,q),
(468,622,l),
(468,642,o),
(412,658,o),
(350,658,qs),
(85,658,l),
(39,420,l),
(185,420,o),
(381,390,o),
(504,294,o),
(504,201,qs),
(504,145,o),
(453,54,o),
(351,0,o),
(276,0,qs),
(150,0,o),
(39,94,o),
(39,164,qs)
);
},
{
closed = 1;
nodes = (
(438,713,l),
(415,617,o),
(283,605,o),
(145,686,o),
(128,713,q),
(124,713,l),
(139,687,o),
(283,603,o),
(419,615,o),
(442,713,q)
);
}
);
width = 534;
}
);
note = five;
unicode = 53;
},
{
glyphname = six;
layers = (
{
layerId = m01;
shapes = (
{
closed = 1;
nodes = (
(465,271,o),
(425,371,o),
(343,435,o),
(283,435,qs),
(215,435,o),
(109,356,o),
(74,281,q),
(88,150,o),
(186,9,o),
(283,9,qs),
(344,9,o),
(426,66,o),
(465,161,o),
(465,218,qs)
);
},
{
closed = 1;
nodes = (
(30,440,o),
(88,610,o),
(210,716,o),
(301,716,qs),
(365,716,o),
(446,679,o),
(483,625,o),
(483,599,qs),
(483,574,o),
(460,553,o),
(438,553,qs),
(419,553,l),
(438,572,o),
(438,608,qs),
(438,650,o),
(366,707,o),
(301,707,qs),
(227,707,o),
(125,605,o),
(74,439,o),
(74,344,qs),
(74,299,l),
(98,364,o),
(205,453,o),
(292,453,qs),
(366,453,o),
(463,392,o),
(509,293,o),
(509,235,qs),
(509,174,o),
(459,66,o),
(357,0,o),
(283,0,qs),
(154,0,o),
(30,191,o),
(30,344,qs)
);
},
{
closed = 1;
nodes = (
(432,408,l),
(396,344,o),
(274,270,o),
(150,237,o),
(69,224,qs),
(57,222,o),
(45,220,q),
(45,220,l),
(70,224,ls),
(152,237,o),
(277,270,o),
(400,344,o),
(436,408,q)
);
},
{
closed = 1;
nodes = (
(417,173,o),
(276,205,o),
(171,234,qs),
(105,252,o),
(38,269,q),
(36,269,l),
(80,258,o),
(168,234,qs),
(272,206,o),
(415,173,o),
(495,164,q)
);
}
);
width = 539;
},
{
layerId = "FEBA88C5-D8E7-4497-AAB9-B5B339CFC9B8";
shapes = (
{
closed = 1;
nodes = (
(472,270,o),
(429,370,o),
(343,435,o),
(283,435,qs),
(215,435,o),
(109,356,o),
(74,281,q),
(88,150,o),
(186,9,o),
(283,9,qs),
(344,9,o),
(429,66,o),
(472,162,o),
(472,218,qs)
);
},
{
closed = 1;
nodes = (
(30,440,o),
(88,610,o),
(210,716,o),
(301,716,qs),
(365,716,o),
(447,679,o),
(485,624,o),
(485,599,qs),
(485,574,o),
(460,553,o),
(438,553,qs),
(419,553,l),
(438,572,o),
(438,608,qs),
(438,650,o),
(366,707,o),
(301,707,qs),
(227,707,o),
(125,605,o),
(74,439,o),
(74,344,qs),
(74,299,l),
(97,362,o),
(214,453,o),
(302,453,qs),
(375,453,o),
(468,392,o),
(509,294,o),
(509,235,qs),
(509,174,o),
(459,66,o),
(357,0,o),
(283,0,qs),
(154,0,o),
(30,191,o),
(30,344,qs)
);
},
{
closed = 1;
nodes = (
(436,408,l),
(429,359,o),
(337,294,o),
(220,259,o),
(130,240,qs),
(60,225,o),
(44,220,q),
(46,220,l),
(129,239,ls),
(219,258,o),
(339,293,o),
(433,359,o),
(440,408,q)
);
},
{
closed = 1;
nodes = (
(463,163,o),
(319,196,o),
(185,231,qs),
(64,263,o),
(38,269,q),
(36,269,l),
(62,263,o),
(183,231,qs),
(315,195,o),
(461,161,o),
(495,164,q)
);
}
);
width = 539;
}
);
note = six;
unicode = 54;
},
{
glyphname = seven;
layers = (
{
layerId = m01;
shapes = (
{
closed = 1;
nodes = (
(30,9,l),
(49,9,o),
(68,25,o),
(68,56,qs),
(68,137,o),
(116,250,o),
(185,320,o),
(243,365,qs),
(300,409,o),
(368,477,o),
(414,585,o),
(414,663,q),
(171,663,ls),
(99,663,o),
(40,647,o),
(40,626,q),
(30,626,l),
(30,668,o),
(30,710,q),
(433,710,l),
(433,663,ls),
(433,580,o),
(390,467,o),
(326,398,o),
(273,355,qs),
(221,313,o),
(158,246,o),
(115,136,o),
(115,56,qs),
(115,34,o),
(125,14,o),
(140,9,o),
(153,9,q),
(153,0,l),
(30,0,l)
);
},
{
closed = 1;
nodes = (
(364,662,l),
(379,366,o),
(288,115,o),
(181,372,o),
(173,710,q),
(169,710,l),
(177,371,o),
(289,112,o),
(383,364,o),
(368,662,q)
);
}
);
width = 463;
},
{
layerId = "FEBA88C5-D8E7-4497-AAB9-B5B339CFC9B8";
shapes = (
{
closed = 1;
nodes = (
(30,9,l),
(52,9,o),
(78,25,o),
(78,56,q),
(83,136,o),
(133,248,o),
(201,318,o),
(257,362,qs),
(313,406,o),
(379,475,o),
(424,584,o),
(424,663,q),
(171,663,ls),
(99,663,o),
(40,647,o),
(40,626,q),
(30,626,l),
(42,677,o),
(30,710,q),
(440,710,l),
(440,663,ls),
(440,578,o),
(399,465,o),
(338,396,o),
(286,352,qs),
(236,310,o),
(175,243,o),
(128,135,o),
(122,56,q),
(122,33,o),
(129,13,o),
(141,9,o),
(153,9,q),
(153,0,l),
(30,0,l)
);
},
{
closed = 1;
nodes = (
(364,662,l),
(404,380,o),
(331,126,o),
(204,375,o),
(173,710,q),
(169,710,l),
(200,373,o),
(332,123,o),
(408,378,o),
(368,662,q)
);
}
);
width = 470;
}
);
note = seven;
unicode = 55;
},
{
glyphname = eight;
layers = (
{
layerId = m01;
shapes = (
{
closed = 1;
nodes = (
(430,646,o),
(328,709,o),
(266,709,qs),
(206,709,o),
(111,647,o),
(111,572,qs),
(111,529,o),
(156,468,o),
(228,436,o),
(266,436,qs),
(308,436,o),
(384,467,o),
(430,529,o),
(430,572,qs)
);
},
{
closed = 1;
nodes = (
(466,272,o),
(411,368,o),
(319,427,o),
(266,427,qs),
(213,427,o),
(126,369,o),
(75,273,o),
(75,219,qs),
(75,166,o),
(119,70,o),
(206,9,o),
(266,9,qs),
(327,9,o),
(418,70,o),
(466,167,o),
(466,219,qs)
);
},
{
closed = 1;
nodes = (
(30,296,o),
(126,417,o),
(212,436,q),
(159,444,o),
(84,515,o),
(84,572,qs),
(84,610,o),
(124,677,o),
(206,719,o),
(266,719,qs),
(331,719,o),
(417,678,o),
(457,611,o),
(457,572,qs),
(457,516,o),
(374,445,o),
(320,436,q),
(378,423,o),
(465,359,o),
(511,269,o),
(511,219,qs),
(511,161,o),
(459,61,o),
(348,0,o),
(266,0,qs),
(145,0,o),
(30,126,o),
(30,219,qs)
);
},
{
closed = 1;
nodes = (
(453,241,o),
(294,371,o),
(151,526,o),
(92,599,q),
(140,588,o),
(251,590,o),
(353,639,o),
(379,696,q),
(375,696,l),
(348,638,o),
(244,590,o),
(133,590,o),
(86,601,q),
(148,525,o),
(287,373,o),
(450,241,o),
(509,236,q)
);
},
{
closed = 1;
nodes = (
(88,186,o),
(239,232,o),
(393,315,o),
(446,371,q),
(442,371,l),
(389,315,o),
(236,232,o),
(87,186,o),
(34,181,q)
);
}
);
width = 541;
},
{
layerId = "FEBA88C5-D8E7-4497-AAB9-B5B339CFC9B8";
shapes = (
{
closed = 1;
nodes = (
(434,646,o),
(329,709,o),
(266,709,qs),
(206,709,o),
(114,647,o),
(114,572,qs),
(114,529,o),
(158,468,o),
(228,436,o),
(266,436,qs),
(309,436,o),
(386,467,o),
(434,529,o),
(434,572,qs)
);
},
{
closed = 1;
nodes = (
(471,272,o),
(414,368,o),
(319,427,o),
(266,427,qs),
(214,427,o),
(128,369,o),
(80,273,o),
(80,219,qs),
(80,166,o),
(122,70,o),
(206,9,o),
(266,9,qs),
(327,9,o),
(420,70,o),
(471,167,o),
(471,219,qs)
);
},
{
closed = 1;
nodes = (
(30,296,o),
(126,417,o),
(212,436,q),
(159,444,o),
(84,515,o),
(84,572,qs),
(84,610,o),
(124,677,o),
(206,719,o),
(266,719,qs),
(331,719,o),
(419,677,o),
(461,610,o),
(461,572,qs),
(461,516,o),
(375,445,o),
(320,436,q),
(378,423,o),
(465,359,o),
(511,269,o),
(511,219,qs),
(511,161,o),
(459,61,o),
(348,0,o),
(266,0,qs),
(145,0,o),
(30,126,o),
(30,219,qs)
);
},
{
closed = 1;
nodes = (
(468,242,o),
(311,360,o),
(146,527,o),
(92,598,q),
(143,585,o),
(276,597,o),
(374,651,o),
(379,696,q),
(375,696,l),
(369,650,o),
(268,597,o),
(134,587,o),
(85,602,q),
(137,531,o),
(305,362,o),
(466,242,o),
(509,236,q)
);
},
{
closed = 1;
nodes = (
(96,187,o),
(256,228,o),
(408,310,o),
(446,371,q),
(442,371,l),
(404,310,o),
(254,228,o),
(95,187,o),
(34,181,q)
);
}
);
width = 541;
}
);
note = eight;
unicode = 56;
},
{
glyphname = nine;
layers = (
{
layerId = m01;
shapes = (
{
closed = 1;
nodes = (
(458,565,o),
(356,710,o),
(269,710,qs),
(203,710,o),
(116,653,o),
(76,561,o),
(76,508,qs),
(76,454,o),
(120,352,o),
(207,286,o),
(269,286,qs),
(332,286,o),
(438,367,o),
(471,442,q)
);
},
{
closed = 1;
nodes = (
(58,146,o),
(81,166,o),
(102,166,qs),
(121,166,l),
(108,160,o),
(102,137,o),
(102,111,qs),
(102,67,o),
(174,9,o),
(241,9,qs),
(316,9,o),
(420,113,o),
(471,281,o),
(471,378,qs),
(471,401,o),
(471,424,q),
(458,381,o),
(400,310,o),
(313,267,o),
(260,267,qs),
(185,267,o),
(81,330,o),
(30,431,o),
(30,489,qs),
(30,547,o),
(82,652,o),
(190,719,o),
(269,719,qs),
(394,719,o),
(517,527,o),
(517,378,qs),
(517,280,o),
(457,108,o),
(333,0,o),
(241,0,qs),
(176,0,o),
(94,38,o),
(58,94,o),
(58,120,qs)
);
},
{
closed = 1;
nodes = (
(453,619,l),
(380,575,o),
(235,554,o),
(119,594,o),
(87,639,q),
(83,639,l),
(115,594,o),
(234,553,o),
(382,574,o),
(455,619,q)
);
},
{
closed = 1;
nodes = (
(416,664,l),
(337,537,o),
(215,517,o),
(144,612,o),
(122,672,q),
(118,672,l),
(138,614,o),
(214,515,o),
(340,535,o),
(420,664,q)
);
}
);
width = 547;
},
{
layerId = "FEBA88C5-D8E7-4497-AAB9-B5B339CFC9B8";
shapes = (
{
closed = 1;
nodes = (
(458,565,o),
(356,710,o),
(269,710,qs),
(203,710,o),
(120,653,o),
(83,562,o),
(83,508,qs),
(83,453,o),
(124,351,o),
(208,286,o),
(269,286,qs),
(332,286,o),
(438,367,o),
(471,442,q)
);
},
{
closed = 1;
nodes = (
(58,146,o),
(81,166,o),
(102,166,qs),
(121,166,l),
(108,160,o),
(102,137,o),
(102,111,qs),
(102,67,o),
(174,9,o),
(241,9,qs),
(316,9,o),
(423,113,o),
(477,282,o),
(477,378,qs),
(477,412,o),
(471,424,q),
(461,382,o),
(402,310,o),
(314,267,o),
(260,267,qs),
(185,267,o),
(81,330,o),
(30,431,o),
(30,489,qs),
(30,547,o),
(82,652,o),
(190,719,o),
(269,719,qs),
(394,719,o),
(517,527,o),
(517,378,qs),
(517,280,o),
(457,108,o),
(333,0,o),
(241,0,qs),
(176,0,o),
(94,38,o),
(58,94,o),
(58,120,qs)
);
},
{
closed = 1;
nodes = (
(452,619,l),
(415,586,o),
(262,564,o),
(117,598,o),
(87,639,q),
(83,639,l),
(113,597,o),
(262,564,o),
(419,586,o),
(456,619,q)
);
},
{
closed = 1;
nodes = (
(416,664,l),
(370,544,o),
(246,523,o),
(139,625,o),
(122,672,q),
(118,672,l),
(134,625,o),
(245,521,o),
(373,542,o),
(420,664,q)
);
}
);
width = 547;
}
);
note = nine;
unicode = 57;
},
